%TF.GenerationSoftware,KiCad,Pcbnew,7.0.1-0*%
%TF.CreationDate,2023-06-05T16:05:10-05:00*%
%TF.ProjectId,ME433 HW4,4d453433-3320-4485-9734-2e6b69636164,rev?*%
%TF.SameCoordinates,Original*%
%TF.FileFunction,Copper,L1,Top*%
%TF.FilePolarity,Positive*%
%FSLAX46Y46*%
G04 Gerber Fmt 4.6, Leading zero omitted, Abs format (unit mm)*
G04 Created by KiCad (PCBNEW 7.0.1-0) date 2023-06-05 16:05:10*
%MOMM*%
%LPD*%
G01*
G04 APERTURE LIST*
%TA.AperFunction,ComponentPad*%
%ADD10C,1.600000*%
%TD*%
%TA.AperFunction,ComponentPad*%
%ADD11O,1.600000X1.600000*%
%TD*%
%TA.AperFunction,ComponentPad*%
%ADD12R,1.700000X1.700000*%
%TD*%
%TA.AperFunction,ComponentPad*%
%ADD13O,1.700000X1.700000*%
%TD*%
%TA.AperFunction,ComponentPad*%
%ADD14R,1.800000X1.800000*%
%TD*%
%TA.AperFunction,ComponentPad*%
%ADD15C,1.800000*%
%TD*%
%TA.AperFunction,ComponentPad*%
%ADD16R,1.600000X1.600000*%
%TD*%
%TA.AperFunction,ComponentPad*%
%ADD17R,1.500000X1.500000*%
%TD*%
%TA.AperFunction,ComponentPad*%
%ADD18C,1.500000*%
%TD*%
%TA.AperFunction,ComponentPad*%
%ADD19C,1.700000*%
%TD*%
%TA.AperFunction,ViaPad*%
%ADD20C,0.800000*%
%TD*%
%TA.AperFunction,Conductor*%
%ADD21C,0.250000*%
%TD*%
G04 APERTURE END LIST*
D10*
%TO.P,R1,1*%
%TO.N,/GREEN*%
X146905000Y-83455000D03*
D11*
%TO.P,R1,2*%
%TO.N,Net-(D1-K)*%
X146905000Y-91075000D03*
%TD*%
D12*
%TO.P,SW2,1,1*%
%TO.N,GND*%
X172305000Y-96155000D03*
D13*
%TO.P,SW2,2,2*%
%TO.N,/USER*%
X172305000Y-91075000D03*
%TD*%
D12*
%TO.P,SW1,1,1*%
%TO.N,GND*%
X165955000Y-96155000D03*
D13*
%TO.P,SW1,2,2*%
%TO.N,/~{MCLR}*%
X165955000Y-91075000D03*
%TD*%
D14*
%TO.P,D1,1,K*%
%TO.N,Net-(D1-K)*%
X138015000Y-87265000D03*
D15*
%TO.P,D1,2,A*%
%TO.N,+3.3V*%
X140555000Y-87265000D03*
%TD*%
D10*
%TO.P,R3,1*%
%TO.N,/~{MCLR}*%
X167225000Y-85995000D03*
D11*
%TO.P,R3,2*%
%TO.N,+3.3V*%
X167225000Y-78375000D03*
%TD*%
D10*
%TO.P,R2,1*%
%TO.N,/YELLOW*%
X151985000Y-96155000D03*
D11*
%TO.P,R2,2*%
%TO.N,Net-(D2-K)*%
X144365000Y-96155000D03*
%TD*%
D14*
%TO.P,D3,1,K*%
%TO.N,Net-(D3-K)*%
X171035000Y-59325000D03*
D15*
%TO.P,D3,2,A*%
%TO.N,Net-(D3-A)*%
X173575000Y-59325000D03*
%TD*%
D12*
%TO.P,J2,1*%
%TO.N,/B15*%
X178655000Y-58055000D03*
D13*
%TO.P,J2,2*%
%TO.N,/B14*%
X178655000Y-60595000D03*
%TO.P,J2,3*%
%TO.N,/B13*%
X178655000Y-63135000D03*
%TO.P,J2,4*%
%TO.N,/B12*%
X178655000Y-65675000D03*
%TO.P,J2,5*%
%TO.N,/B11*%
X178655000Y-68215000D03*
%TO.P,J2,6*%
%TO.N,/B10*%
X178655000Y-70755000D03*
%TO.P,J2,7*%
%TO.N,/B9*%
X178655000Y-73295000D03*
%TO.P,J2,8*%
%TO.N,/B8*%
X178655000Y-75835000D03*
%TO.P,J2,9*%
%TO.N,/B7*%
X178655000Y-78375000D03*
%TO.P,J2,10*%
%TO.N,/Vin*%
X178655000Y-80915000D03*
%TO.P,J2,11*%
%TO.N,+3.3V*%
X178655000Y-83455000D03*
%TO.P,J2,12*%
%TO.N,unconnected-(J2-Pad12)*%
X178655000Y-85995000D03*
%TD*%
D10*
%TO.P,C4,1*%
%TO.N,Net-(SW3-B)*%
X165955000Y-55880000D03*
%TO.P,C4,2*%
%TO.N,GND*%
X165955000Y-60880000D03*
%TD*%
%TO.P,R5,1*%
%TO.N,GND*%
X163415000Y-65675000D03*
D11*
%TO.P,R5,2*%
%TO.N,Net-(D3-K)*%
X171035000Y-65675000D03*
%TD*%
D12*
%TO.P,J3,1,Power*%
%TO.N,Net-(J3-Power)*%
X139285000Y-56785000D03*
D13*
%TO.P,J3,2,GND*%
%TO.N,GND*%
X141825000Y-56785000D03*
%TD*%
D10*
%TO.P,C1,1*%
%TO.N,+3.3V*%
X132935000Y-94885000D03*
%TO.P,C1,2*%
%TO.N,GND*%
X132935000Y-92385000D03*
%TD*%
D12*
%TO.P,J1,1*%
%TO.N,/A0*%
X132935000Y-59025000D03*
D13*
%TO.P,J1,2*%
%TO.N,/A1*%
X132935000Y-61565000D03*
%TO.P,J1,3*%
%TO.N,/B0*%
X132935000Y-64105000D03*
%TO.P,J1,4*%
%TO.N,/B1*%
X132935000Y-66645000D03*
%TO.P,J1,5*%
%TO.N,/B2*%
X132935000Y-69185000D03*
%TO.P,J1,6*%
%TO.N,/A3*%
X132935000Y-71725000D03*
%TO.P,J1,7*%
%TO.N,/GREEN*%
X132935000Y-74265000D03*
%TO.P,J1,8*%
%TO.N,/YELLOW*%
X132935000Y-76805000D03*
%TO.P,J1,9*%
%TO.N,/B6*%
X132935000Y-79345000D03*
%TO.P,J1,10*%
%TO.N,/Vin*%
X132935000Y-81885000D03*
%TO.P,J1,11*%
%TO.N,+3.3V*%
X132935000Y-84425000D03*
%TO.P,J1,12*%
%TO.N,GND*%
X132935000Y-86965000D03*
%TD*%
D14*
%TO.P,D2,1,K*%
%TO.N,Net-(D2-K)*%
X140970000Y-95250000D03*
D15*
%TO.P,D2,2,A*%
%TO.N,+3.3V*%
X138430000Y-95250000D03*
%TD*%
D16*
%TO.P,U1,1,~{MCLR}*%
%TO.N,/~{MCLR}*%
X151995000Y-56770000D03*
D11*
%TO.P,U1,2,A0*%
%TO.N,/A0*%
X151995000Y-59310000D03*
%TO.P,U1,3,A1*%
%TO.N,/A1*%
X151995000Y-61850000D03*
%TO.P,U1,4,B0*%
%TO.N,/B0*%
X151995000Y-64390000D03*
%TO.P,U1,5,B1*%
%TO.N,/B1*%
X151995000Y-66930000D03*
%TO.P,U1,6,B2*%
%TO.N,/B2*%
X151995000Y-69470000D03*
%TO.P,U1,7,B3*%
%TO.N,/U1TX*%
X151995000Y-72010000D03*
%TO.P,U1,8,Vss*%
%TO.N,GND*%
X151995000Y-74550000D03*
%TO.P,U1,9,A2*%
%TO.N,/U1RX*%
X151995000Y-77090000D03*
%TO.P,U1,10,A3*%
%TO.N,/A3*%
X151995000Y-79630000D03*
%TO.P,U1,11,B4*%
%TO.N,/GREEN*%
X151995000Y-82170000D03*
%TO.P,U1,12,A4*%
%TO.N,/USER*%
X151995000Y-84710000D03*
%TO.P,U1,13,Vdd*%
%TO.N,+3.3V*%
X151995000Y-87250000D03*
%TO.P,U1,14,B5*%
%TO.N,/YELLOW*%
X151995000Y-89790000D03*
%TO.P,U1,15,B6*%
%TO.N,/B6*%
X159615000Y-89790000D03*
%TO.P,U1,16,B7*%
%TO.N,/B7*%
X159615000Y-87250000D03*
%TO.P,U1,17,B8*%
%TO.N,/B8*%
X159615000Y-84710000D03*
%TO.P,U1,18,B9*%
%TO.N,/B9*%
X159615000Y-82170000D03*
%TO.P,U1,19,Vss*%
%TO.N,GND*%
X159615000Y-79630000D03*
%TO.P,U1,20,Vcap*%
%TO.N,Net-(U1-Vcap)*%
X159615000Y-77090000D03*
%TO.P,U1,21,B10*%
%TO.N,/B10*%
X159615000Y-74550000D03*
%TO.P,U1,22,B11*%
%TO.N,/B11*%
X159615000Y-72010000D03*
%TO.P,U1,23,B12*%
%TO.N,/B12*%
X159615000Y-69470000D03*
%TO.P,U1,24,B13*%
%TO.N,/B13*%
X159615000Y-66930000D03*
%TO.P,U1,25,B14*%
%TO.N,/B14*%
X159615000Y-64390000D03*
%TO.P,U1,26,B15*%
%TO.N,/B15*%
X159615000Y-61850000D03*
%TO.P,U1,27,AVss*%
%TO.N,GND*%
X159615000Y-59310000D03*
%TO.P,U1,28,AVdd*%
%TO.N,+3.3V*%
X159615000Y-56770000D03*
%TD*%
D10*
%TO.P,C6,1*%
%TO.N,Net-(D3-A)*%
X146905000Y-61785000D03*
%TO.P,C6,2*%
%TO.N,GND*%
X146905000Y-56785000D03*
%TD*%
D17*
%TO.P,U3,1,VO*%
%TO.N,Net-(D3-A)*%
X169765000Y-52975000D03*
D18*
%TO.P,U3,2,GND*%
%TO.N,GND*%
X172305000Y-52975000D03*
%TO.P,U3,3,VI*%
%TO.N,Net-(SW3-B)*%
X174845000Y-52975000D03*
%TD*%
D10*
%TO.P,C2,1*%
%TO.N,Net-(U1-Vcap)*%
X163339957Y-76015340D03*
%TO.P,C2,2*%
%TO.N,GND*%
X163339957Y-81015340D03*
%TD*%
D12*
%TO.P,U2,1*%
%TO.N,unconnected-(U2-Pad1)*%
X148150000Y-51730000D03*
D13*
%TO.P,U2,2*%
%TO.N,/U1TX*%
X145610000Y-51730000D03*
%TO.P,U2,3*%
%TO.N,/U1RX*%
X143070000Y-51730000D03*
%TO.P,U2,4*%
%TO.N,+5V*%
X140530000Y-51730000D03*
%TO.P,U2,5*%
%TO.N,unconnected-(U2-Pad5)*%
X137990000Y-51730000D03*
%TO.P,U2,6*%
%TO.N,GND*%
X135450000Y-51730000D03*
%TD*%
D19*
%TO.P,SW3,1,A*%
%TO.N,+5V*%
X157065000Y-51705000D03*
%TO.P,SW3,2,B*%
%TO.N,Net-(SW3-B)*%
X159605000Y-51705000D03*
%TO.P,SW3,3,C*%
%TO.N,Net-(J3-Power)*%
X162145000Y-51705000D03*
%TD*%
D10*
%TO.P,R4,1*%
%TO.N,/USER*%
X172720000Y-86360000D03*
D11*
%TO.P,R4,2*%
%TO.N,+3.3V*%
X172720000Y-78740000D03*
%TD*%
D10*
%TO.P,C3,1*%
%TO.N,+3.3V*%
X140970000Y-64730000D03*
%TO.P,C3,2*%
%TO.N,GND*%
X140970000Y-62230000D03*
%TD*%
%TO.P,C5,1*%
%TO.N,Net-(D3-A)*%
X146905000Y-70835000D03*
%TO.P,C5,2*%
%TO.N,GND*%
X146905000Y-75835000D03*
%TD*%
D20*
%TO.N,+3.3V*%
X149860000Y-86360000D03*
X144780000Y-87630000D03*
X138430000Y-85090000D03*
X162560000Y-60960000D03*
%TO.N,/YELLOW*%
X152400000Y-93434500D03*
%TO.N,/B15*%
X170180000Y-63500000D03*
%TO.N,/USER*%
X157480000Y-85090000D03*
%TO.N,/~{MCLR}*%
X156210000Y-86360000D03*
X156210000Y-82550000D03*
%TO.N,/U1TX*%
X143510000Y-72390000D03*
X143510000Y-59690000D03*
%TD*%
D21*
%TO.N,+3.3V*%
X172720000Y-78740000D02*
X173940000Y-78740000D01*
X140555000Y-87265000D02*
X144415000Y-87265000D01*
X173940000Y-78740000D02*
X178655000Y-83455000D01*
X140920000Y-87630000D02*
X140970000Y-87630000D01*
X151995000Y-87250000D02*
X150750000Y-87250000D01*
X167225000Y-78375000D02*
X172355000Y-78375000D01*
X162560000Y-59715000D02*
X162560000Y-60960000D01*
X144415000Y-87265000D02*
X144780000Y-87630000D01*
X140555000Y-87265000D02*
X140920000Y-87630000D01*
X172355000Y-78375000D02*
X172720000Y-78740000D01*
X159615000Y-56770000D02*
X162560000Y-59715000D01*
X140555000Y-87265000D02*
X138430000Y-85140000D01*
X132935000Y-94885000D02*
X138065000Y-94885000D01*
X150750000Y-87250000D02*
X149860000Y-86360000D01*
X138065000Y-94885000D02*
X138430000Y-95250000D01*
X138430000Y-85140000D02*
X138430000Y-85090000D01*
%TO.N,Net-(U1-Vcap)*%
X162265297Y-77090000D02*
X163339957Y-76015340D01*
X159615000Y-77090000D02*
X162265297Y-77090000D01*
%TO.N,Net-(SW3-B)*%
X165955000Y-55880000D02*
X165955000Y-53853299D01*
X173770000Y-51900000D02*
X168690000Y-51900000D01*
X165955000Y-54635000D02*
X165955000Y-55880000D01*
X165955000Y-53853299D02*
X162631701Y-50530000D01*
X160780000Y-50530000D02*
X159605000Y-51705000D01*
X168690000Y-51900000D02*
X165955000Y-54635000D01*
X162631701Y-50530000D02*
X160780000Y-50530000D01*
X174845000Y-52975000D02*
X173770000Y-51900000D01*
%TO.N,Net-(D3-A)*%
X173575000Y-59325000D02*
X169765000Y-55515000D01*
X169765000Y-55515000D02*
X169765000Y-52975000D01*
%TO.N,Net-(D2-K)*%
X140970000Y-95250000D02*
X143460000Y-95250000D01*
X143460000Y-95250000D02*
X144365000Y-96155000D01*
%TO.N,Net-(D3-K)*%
X171035000Y-65675000D02*
X171035000Y-59325000D01*
%TO.N,/A1*%
X132935000Y-61565000D02*
X133840000Y-60660000D01*
X150805000Y-60660000D02*
X151995000Y-61850000D01*
X133840000Y-60660000D02*
X150805000Y-60660000D01*
%TO.N,/B0*%
X132935000Y-64105000D02*
X134870000Y-66040000D01*
X134870000Y-66040000D02*
X150345000Y-66040000D01*
X150345000Y-66040000D02*
X151995000Y-64390000D01*
%TO.N,/B1*%
X151710000Y-66645000D02*
X151995000Y-66930000D01*
X132935000Y-66645000D02*
X151710000Y-66645000D01*
%TO.N,/B2*%
X133220000Y-69470000D02*
X132935000Y-69185000D01*
X151995000Y-69470000D02*
X133220000Y-69470000D01*
%TO.N,/A3*%
X132935000Y-71725000D02*
X140575991Y-71725000D01*
X148480991Y-79630000D02*
X151995000Y-79630000D01*
X140575991Y-71725000D02*
X148480991Y-79630000D01*
%TO.N,/GREEN*%
X143400991Y-82170000D02*
X148590000Y-82170000D01*
X148190000Y-82170000D02*
X148590000Y-82170000D01*
X132935000Y-74265000D02*
X135495991Y-74265000D01*
X148590000Y-82170000D02*
X151995000Y-82170000D01*
X146905000Y-83455000D02*
X148190000Y-82170000D01*
X135495991Y-74265000D02*
X143400991Y-82170000D01*
%TO.N,/YELLOW*%
X147320000Y-86360000D02*
X150750000Y-89790000D01*
X134715000Y-76805000D02*
X144270000Y-86360000D01*
X144270000Y-86360000D02*
X147320000Y-86360000D01*
X150750000Y-89790000D02*
X151995000Y-89790000D01*
X132935000Y-76805000D02*
X134715000Y-76805000D01*
X151985000Y-96155000D02*
X151985000Y-93849500D01*
X151985000Y-93849500D02*
X152400000Y-93434500D01*
%TO.N,/B6*%
X136790000Y-88530000D02*
X140460000Y-92200000D01*
X140460000Y-92200000D02*
X157205000Y-92200000D01*
X132935000Y-79345000D02*
X136790000Y-83200000D01*
X157205000Y-92200000D02*
X159615000Y-89790000D01*
X136790000Y-83200000D02*
X136790000Y-88530000D01*
%TO.N,/Vin*%
X136340000Y-88716396D02*
X140333604Y-92710000D01*
X136340000Y-85290000D02*
X136340000Y-88716396D01*
X132935000Y-81885000D02*
X136340000Y-85290000D01*
%TO.N,/B15*%
X160414999Y-62649999D02*
X169329999Y-62649999D01*
X159615000Y-61850000D02*
X160414999Y-62649999D01*
X169329999Y-62649999D02*
X170180000Y-63500000D01*
%TO.N,/B13*%
X159615000Y-66930000D02*
X174860000Y-66930000D01*
X174860000Y-66930000D02*
X178655000Y-63135000D01*
%TO.N,/B12*%
X160505000Y-68580000D02*
X161290000Y-68580000D01*
X174860000Y-69470000D02*
X178655000Y-65675000D01*
X159615000Y-69470000D02*
X160505000Y-68580000D01*
X159615000Y-69470000D02*
X174860000Y-69470000D01*
%TO.N,/B11*%
X174860000Y-72010000D02*
X178655000Y-68215000D01*
X159615000Y-72010000D02*
X174860000Y-72010000D01*
%TO.N,/B10*%
X174860000Y-74550000D02*
X178655000Y-70755000D01*
X159615000Y-74550000D02*
X174860000Y-74550000D01*
%TO.N,/B9*%
X159615000Y-82170000D02*
X164535000Y-77250000D01*
X174700000Y-77250000D02*
X178655000Y-73295000D01*
X164535000Y-77250000D02*
X174700000Y-77250000D01*
%TO.N,/B8*%
X176530000Y-80641701D02*
X176530000Y-77960000D01*
X159615000Y-84710000D02*
X179061701Y-84710000D01*
X179830000Y-83941701D02*
X179830000Y-82968299D01*
X179830000Y-82968299D02*
X179141701Y-82280000D01*
X178168299Y-82280000D02*
X176530000Y-80641701D01*
X179141701Y-82280000D02*
X178168299Y-82280000D01*
X176530000Y-77960000D02*
X178655000Y-75835000D01*
X179061701Y-84710000D02*
X179830000Y-83941701D01*
%TO.N,/B7*%
X159149009Y-81045000D02*
X160103604Y-81045000D01*
X179141701Y-72120000D02*
X179830000Y-72808299D01*
X179830000Y-72808299D02*
X179830000Y-76710000D01*
X164348604Y-76800000D02*
X173488299Y-76800000D01*
X158490000Y-86125000D02*
X158490000Y-81704009D01*
X179830000Y-76710000D02*
X178165000Y-78375000D01*
X178165000Y-78375000D02*
X178655000Y-78375000D01*
X158490000Y-81704009D02*
X159149009Y-81045000D01*
X159615000Y-87250000D02*
X158490000Y-86125000D01*
X160103604Y-81045000D02*
X164348604Y-76800000D01*
X178168299Y-72120000D02*
X179141701Y-72120000D01*
X173488299Y-76800000D02*
X178168299Y-72120000D01*
%TO.N,Net-(J3-Power)*%
X140460000Y-55610000D02*
X139285000Y-56785000D01*
X158240000Y-55610000D02*
X140460000Y-55610000D01*
X162145000Y-51705000D02*
X158240000Y-55610000D01*
%TO.N,/USER*%
X151995000Y-84710000D02*
X157100000Y-84710000D01*
X172305000Y-86775000D02*
X172720000Y-86360000D01*
X172305000Y-91075000D02*
X172305000Y-86775000D01*
X157100000Y-84710000D02*
X157480000Y-85090000D01*
%TO.N,+5V*%
X157065000Y-51705000D02*
X155865000Y-52905000D01*
X155865000Y-52905000D02*
X141705000Y-52905000D01*
X141705000Y-52905000D02*
X140530000Y-51730000D01*
%TO.N,/~{MCLR}*%
X156210000Y-57150000D02*
X155830000Y-56770000D01*
X165955000Y-91075000D02*
X163545000Y-88665000D01*
X165955000Y-87265000D02*
X167225000Y-85995000D01*
X165955000Y-91075000D02*
X165955000Y-87265000D01*
X156210000Y-82550000D02*
X156210000Y-57150000D01*
X158515000Y-88665000D02*
X156210000Y-86360000D01*
X163545000Y-88665000D02*
X158515000Y-88665000D01*
X155830000Y-56770000D02*
X151995000Y-56770000D01*
%TO.N,/U1TX*%
X143890000Y-72010000D02*
X151995000Y-72010000D01*
X144435000Y-50555000D02*
X140043299Y-50555000D01*
X140043299Y-50555000D02*
X139355000Y-51243299D01*
X139700000Y-59690000D02*
X143510000Y-59690000D01*
X143510000Y-72390000D02*
X143890000Y-72010000D01*
X139355000Y-51243299D02*
X139355000Y-54365000D01*
X137160000Y-56560000D02*
X137160000Y-57150000D01*
X137160000Y-57150000D02*
X139700000Y-59690000D01*
X145610000Y-51730000D02*
X144435000Y-50555000D01*
X139355000Y-54365000D02*
X137160000Y-56560000D01*
%TD*%
M02*
