%TF.GenerationSoftware,KiCad,Pcbnew,7.0.1-0*%
%TF.CreationDate,2023-06-05T16:05:10-05:00*%
%TF.ProjectId,ME433 HW4,4d453433-3320-4485-9734-2e6b69636164,rev?*%
%TF.SameCoordinates,Original*%
%TF.FileFunction,Copper,L2,Bot*%
%TF.FilePolarity,Positive*%
%FSLAX46Y46*%
G04 Gerber Fmt 4.6, Leading zero omitted, Abs format (unit mm)*
G04 Created by KiCad (PCBNEW 7.0.1-0) date 2023-06-05 16:05:10*
%MOMM*%
%LPD*%
G01*
G04 APERTURE LIST*
%TA.AperFunction,ComponentPad*%
%ADD10C,1.600000*%
%TD*%
%TA.AperFunction,ComponentPad*%
%ADD11O,1.600000X1.600000*%
%TD*%
%TA.AperFunction,ComponentPad*%
%ADD12R,1.700000X1.700000*%
%TD*%
%TA.AperFunction,ComponentPad*%
%ADD13O,1.700000X1.700000*%
%TD*%
%TA.AperFunction,ComponentPad*%
%ADD14R,1.800000X1.800000*%
%TD*%
%TA.AperFunction,ComponentPad*%
%ADD15C,1.800000*%
%TD*%
%TA.AperFunction,ComponentPad*%
%ADD16R,1.600000X1.600000*%
%TD*%
%TA.AperFunction,ComponentPad*%
%ADD17R,1.500000X1.500000*%
%TD*%
%TA.AperFunction,ComponentPad*%
%ADD18C,1.500000*%
%TD*%
%TA.AperFunction,ComponentPad*%
%ADD19C,1.700000*%
%TD*%
%TA.AperFunction,ViaPad*%
%ADD20C,0.800000*%
%TD*%
%TA.AperFunction,Conductor*%
%ADD21C,0.250000*%
%TD*%
G04 APERTURE END LIST*
D10*
%TO.P,R1,1*%
%TO.N,/GREEN*%
X146905000Y-83455000D03*
D11*
%TO.P,R1,2*%
%TO.N,Net-(D1-K)*%
X146905000Y-91075000D03*
%TD*%
D12*
%TO.P,SW2,1,1*%
%TO.N,GND*%
X172305000Y-96155000D03*
D13*
%TO.P,SW2,2,2*%
%TO.N,/USER*%
X172305000Y-91075000D03*
%TD*%
D12*
%TO.P,SW1,1,1*%
%TO.N,GND*%
X165955000Y-96155000D03*
D13*
%TO.P,SW1,2,2*%
%TO.N,/~{MCLR}*%
X165955000Y-91075000D03*
%TD*%
D14*
%TO.P,D1,1,K*%
%TO.N,Net-(D1-K)*%
X138015000Y-87265000D03*
D15*
%TO.P,D1,2,A*%
%TO.N,+3.3V*%
X140555000Y-87265000D03*
%TD*%
D10*
%TO.P,R3,1*%
%TO.N,/~{MCLR}*%
X167225000Y-85995000D03*
D11*
%TO.P,R3,2*%
%TO.N,+3.3V*%
X167225000Y-78375000D03*
%TD*%
D10*
%TO.P,R2,1*%
%TO.N,/YELLOW*%
X151985000Y-96155000D03*
D11*
%TO.P,R2,2*%
%TO.N,Net-(D2-K)*%
X144365000Y-96155000D03*
%TD*%
D14*
%TO.P,D3,1,K*%
%TO.N,Net-(D3-K)*%
X171035000Y-59325000D03*
D15*
%TO.P,D3,2,A*%
%TO.N,Net-(D3-A)*%
X173575000Y-59325000D03*
%TD*%
D12*
%TO.P,J2,1*%
%TO.N,/B15*%
X178655000Y-58055000D03*
D13*
%TO.P,J2,2*%
%TO.N,/B14*%
X178655000Y-60595000D03*
%TO.P,J2,3*%
%TO.N,/B13*%
X178655000Y-63135000D03*
%TO.P,J2,4*%
%TO.N,/B12*%
X178655000Y-65675000D03*
%TO.P,J2,5*%
%TO.N,/B11*%
X178655000Y-68215000D03*
%TO.P,J2,6*%
%TO.N,/B10*%
X178655000Y-70755000D03*
%TO.P,J2,7*%
%TO.N,/B9*%
X178655000Y-73295000D03*
%TO.P,J2,8*%
%TO.N,/B8*%
X178655000Y-75835000D03*
%TO.P,J2,9*%
%TO.N,/B7*%
X178655000Y-78375000D03*
%TO.P,J2,10*%
%TO.N,/Vin*%
X178655000Y-80915000D03*
%TO.P,J2,11*%
%TO.N,+3.3V*%
X178655000Y-83455000D03*
%TO.P,J2,12*%
%TO.N,unconnected-(J2-Pad12)*%
X178655000Y-85995000D03*
%TD*%
D10*
%TO.P,C4,1*%
%TO.N,Net-(SW3-B)*%
X165955000Y-55880000D03*
%TO.P,C4,2*%
%TO.N,GND*%
X165955000Y-60880000D03*
%TD*%
%TO.P,R5,1*%
%TO.N,GND*%
X163415000Y-65675000D03*
D11*
%TO.P,R5,2*%
%TO.N,Net-(D3-K)*%
X171035000Y-65675000D03*
%TD*%
D12*
%TO.P,J3,1,Power*%
%TO.N,Net-(J3-Power)*%
X139285000Y-56785000D03*
D13*
%TO.P,J3,2,GND*%
%TO.N,GND*%
X141825000Y-56785000D03*
%TD*%
D10*
%TO.P,C1,1*%
%TO.N,+3.3V*%
X132935000Y-94885000D03*
%TO.P,C1,2*%
%TO.N,GND*%
X132935000Y-92385000D03*
%TD*%
D12*
%TO.P,J1,1*%
%TO.N,/A0*%
X132935000Y-59025000D03*
D13*
%TO.P,J1,2*%
%TO.N,/A1*%
X132935000Y-61565000D03*
%TO.P,J1,3*%
%TO.N,/B0*%
X132935000Y-64105000D03*
%TO.P,J1,4*%
%TO.N,/B1*%
X132935000Y-66645000D03*
%TO.P,J1,5*%
%TO.N,/B2*%
X132935000Y-69185000D03*
%TO.P,J1,6*%
%TO.N,/A3*%
X132935000Y-71725000D03*
%TO.P,J1,7*%
%TO.N,/GREEN*%
X132935000Y-74265000D03*
%TO.P,J1,8*%
%TO.N,/YELLOW*%
X132935000Y-76805000D03*
%TO.P,J1,9*%
%TO.N,/B6*%
X132935000Y-79345000D03*
%TO.P,J1,10*%
%TO.N,/Vin*%
X132935000Y-81885000D03*
%TO.P,J1,11*%
%TO.N,+3.3V*%
X132935000Y-84425000D03*
%TO.P,J1,12*%
%TO.N,GND*%
X132935000Y-86965000D03*
%TD*%
D14*
%TO.P,D2,1,K*%
%TO.N,Net-(D2-K)*%
X140970000Y-95250000D03*
D15*
%TO.P,D2,2,A*%
%TO.N,+3.3V*%
X138430000Y-95250000D03*
%TD*%
D16*
%TO.P,U1,1,~{MCLR}*%
%TO.N,/~{MCLR}*%
X151995000Y-56770000D03*
D11*
%TO.P,U1,2,A0*%
%TO.N,/A0*%
X151995000Y-59310000D03*
%TO.P,U1,3,A1*%
%TO.N,/A1*%
X151995000Y-61850000D03*
%TO.P,U1,4,B0*%
%TO.N,/B0*%
X151995000Y-64390000D03*
%TO.P,U1,5,B1*%
%TO.N,/B1*%
X151995000Y-66930000D03*
%TO.P,U1,6,B2*%
%TO.N,/B2*%
X151995000Y-69470000D03*
%TO.P,U1,7,B3*%
%TO.N,/U1TX*%
X151995000Y-72010000D03*
%TO.P,U1,8,Vss*%
%TO.N,GND*%
X151995000Y-74550000D03*
%TO.P,U1,9,A2*%
%TO.N,/U1RX*%
X151995000Y-77090000D03*
%TO.P,U1,10,A3*%
%TO.N,/A3*%
X151995000Y-79630000D03*
%TO.P,U1,11,B4*%
%TO.N,/GREEN*%
X151995000Y-82170000D03*
%TO.P,U1,12,A4*%
%TO.N,/USER*%
X151995000Y-84710000D03*
%TO.P,U1,13,Vdd*%
%TO.N,+3.3V*%
X151995000Y-87250000D03*
%TO.P,U1,14,B5*%
%TO.N,/YELLOW*%
X151995000Y-89790000D03*
%TO.P,U1,15,B6*%
%TO.N,/B6*%
X159615000Y-89790000D03*
%TO.P,U1,16,B7*%
%TO.N,/B7*%
X159615000Y-87250000D03*
%TO.P,U1,17,B8*%
%TO.N,/B8*%
X159615000Y-84710000D03*
%TO.P,U1,18,B9*%
%TO.N,/B9*%
X159615000Y-82170000D03*
%TO.P,U1,19,Vss*%
%TO.N,GND*%
X159615000Y-79630000D03*
%TO.P,U1,20,Vcap*%
%TO.N,Net-(U1-Vcap)*%
X159615000Y-77090000D03*
%TO.P,U1,21,B10*%
%TO.N,/B10*%
X159615000Y-74550000D03*
%TO.P,U1,22,B11*%
%TO.N,/B11*%
X159615000Y-72010000D03*
%TO.P,U1,23,B12*%
%TO.N,/B12*%
X159615000Y-69470000D03*
%TO.P,U1,24,B13*%
%TO.N,/B13*%
X159615000Y-66930000D03*
%TO.P,U1,25,B14*%
%TO.N,/B14*%
X159615000Y-64390000D03*
%TO.P,U1,26,B15*%
%TO.N,/B15*%
X159615000Y-61850000D03*
%TO.P,U1,27,AVss*%
%TO.N,GND*%
X159615000Y-59310000D03*
%TO.P,U1,28,AVdd*%
%TO.N,+3.3V*%
X159615000Y-56770000D03*
%TD*%
D10*
%TO.P,C6,1*%
%TO.N,Net-(D3-A)*%
X146905000Y-61785000D03*
%TO.P,C6,2*%
%TO.N,GND*%
X146905000Y-56785000D03*
%TD*%
D17*
%TO.P,U3,1,VO*%
%TO.N,Net-(D3-A)*%
X169765000Y-52975000D03*
D18*
%TO.P,U3,2,GND*%
%TO.N,GND*%
X172305000Y-52975000D03*
%TO.P,U3,3,VI*%
%TO.N,Net-(SW3-B)*%
X174845000Y-52975000D03*
%TD*%
D10*
%TO.P,C2,1*%
%TO.N,Net-(U1-Vcap)*%
X163339957Y-76015340D03*
%TO.P,C2,2*%
%TO.N,GND*%
X163339957Y-81015340D03*
%TD*%
D12*
%TO.P,U2,1*%
%TO.N,unconnected-(U2-Pad1)*%
X148150000Y-51730000D03*
D13*
%TO.P,U2,2*%
%TO.N,/U1TX*%
X145610000Y-51730000D03*
%TO.P,U2,3*%
%TO.N,/U1RX*%
X143070000Y-51730000D03*
%TO.P,U2,4*%
%TO.N,+5V*%
X140530000Y-51730000D03*
%TO.P,U2,5*%
%TO.N,unconnected-(U2-Pad5)*%
X137990000Y-51730000D03*
%TO.P,U2,6*%
%TO.N,GND*%
X135450000Y-51730000D03*
%TD*%
D19*
%TO.P,SW3,1,A*%
%TO.N,+5V*%
X157065000Y-51705000D03*
%TO.P,SW3,2,B*%
%TO.N,Net-(SW3-B)*%
X159605000Y-51705000D03*
%TO.P,SW3,3,C*%
%TO.N,Net-(J3-Power)*%
X162145000Y-51705000D03*
%TD*%
D10*
%TO.P,R4,1*%
%TO.N,/USER*%
X172720000Y-86360000D03*
D11*
%TO.P,R4,2*%
%TO.N,+3.3V*%
X172720000Y-78740000D03*
%TD*%
D10*
%TO.P,C3,1*%
%TO.N,+3.3V*%
X140970000Y-64730000D03*
%TO.P,C3,2*%
%TO.N,GND*%
X140970000Y-62230000D03*
%TD*%
%TO.P,C5,1*%
%TO.N,Net-(D3-A)*%
X146905000Y-70835000D03*
%TO.P,C5,2*%
%TO.N,GND*%
X146905000Y-75835000D03*
%TD*%
D20*
%TO.N,+3.3V*%
X149860000Y-86360000D03*
X144780000Y-87630000D03*
X138430000Y-85090000D03*
X162560000Y-60960000D03*
%TO.N,/YELLOW*%
X152400000Y-93434500D03*
%TO.N,/B15*%
X170180000Y-63500000D03*
%TO.N,/USER*%
X157480000Y-85090000D03*
%TO.N,/~{MCLR}*%
X156210000Y-86360000D03*
X156210000Y-82550000D03*
%TO.N,/U1TX*%
X143510000Y-72390000D03*
X143510000Y-59690000D03*
%TD*%
D21*
%TO.N,+3.3V*%
X148590000Y-87630000D02*
X144780000Y-87630000D01*
X132935000Y-84425000D02*
X134505000Y-84425000D01*
X167225000Y-65625000D02*
X167225000Y-78375000D01*
X138430000Y-85090000D02*
X137765000Y-84425000D01*
X162560000Y-60960000D02*
X167225000Y-65625000D01*
X149860000Y-86360000D02*
X148590000Y-87630000D01*
X137765000Y-84425000D02*
X132935000Y-84425000D01*
%TO.N,/YELLOW*%
X151995000Y-93029500D02*
X151995000Y-89790000D01*
X152400000Y-93434500D02*
X151995000Y-93029500D01*
%TO.N,/B15*%
X173210000Y-63500000D02*
X178655000Y-58055000D01*
X170180000Y-63500000D02*
X173210000Y-63500000D01*
%TO.N,/USER*%
X164865000Y-86125000D02*
X166370000Y-87630000D01*
X171450000Y-87630000D02*
X172720000Y-86360000D01*
X157480000Y-85090000D02*
X158515000Y-86125000D01*
X158515000Y-86125000D02*
X164865000Y-86125000D01*
X151970000Y-84710000D02*
X151995000Y-84710000D01*
X166370000Y-87630000D02*
X171450000Y-87630000D01*
%TO.N,/~{MCLR}*%
X156210000Y-86360000D02*
X156210000Y-82550000D01*
%TO.N,/U1TX*%
X143510000Y-59690000D02*
X143510000Y-72390000D01*
%TD*%
%TA.AperFunction,Conductor*%
%TO.N,GND*%
G36*
X181187148Y-48629012D02*
G01*
X181232679Y-48674522D01*
X181249257Y-48736727D01*
X181142653Y-98638830D01*
X181125975Y-98700678D01*
X181080656Y-98745951D01*
X181018790Y-98762565D01*
X131358219Y-98817445D01*
X131296204Y-98800902D01*
X131250767Y-98755569D01*
X131234082Y-98693592D01*
X131232607Y-97448352D01*
X131229570Y-94884999D01*
X131629531Y-94884999D01*
X131649364Y-95111689D01*
X131708261Y-95331497D01*
X131804432Y-95537735D01*
X131934953Y-95724140D01*
X132095859Y-95885046D01*
X132282264Y-96015567D01*
X132282265Y-96015567D01*
X132282266Y-96015568D01*
X132488504Y-96111739D01*
X132708308Y-96170635D01*
X132935000Y-96190468D01*
X133161692Y-96170635D01*
X133381496Y-96111739D01*
X133587734Y-96015568D01*
X133774139Y-95885047D01*
X133935047Y-95724139D01*
X134065568Y-95537734D01*
X134161739Y-95331496D01*
X134183576Y-95250000D01*
X137024699Y-95250000D01*
X137043865Y-95481299D01*
X137043865Y-95481301D01*
X137043866Y-95481305D01*
X137100843Y-95706300D01*
X137100844Y-95706303D01*
X137108668Y-95724139D01*
X137194076Y-95918849D01*
X137321021Y-96113153D01*
X137478216Y-96283913D01*
X137661374Y-96426470D01*
X137865497Y-96536936D01*
X137975258Y-96574617D01*
X138085015Y-96612297D01*
X138085017Y-96612297D01*
X138085019Y-96612298D01*
X138313951Y-96650500D01*
X138546048Y-96650500D01*
X138546049Y-96650500D01*
X138774981Y-96612298D01*
X138994503Y-96536936D01*
X139198626Y-96426470D01*
X139381784Y-96283913D01*
X139390132Y-96274843D01*
X139442754Y-96240989D01*
X139505209Y-96237140D01*
X139561592Y-96264277D01*
X139597544Y-96315491D01*
X139626204Y-96392331D01*
X139712454Y-96507546D01*
X139827669Y-96593796D01*
X139962517Y-96644091D01*
X140022127Y-96650500D01*
X141917872Y-96650499D01*
X141977483Y-96644091D01*
X142112331Y-96593796D01*
X142227546Y-96507546D01*
X142313796Y-96392331D01*
X142364091Y-96257483D01*
X142370500Y-96197873D01*
X142370500Y-96155000D01*
X143059531Y-96155000D01*
X143079364Y-96381689D01*
X143138261Y-96601497D01*
X143234432Y-96807735D01*
X143364953Y-96994140D01*
X143525859Y-97155046D01*
X143712264Y-97285567D01*
X143712265Y-97285567D01*
X143712266Y-97285568D01*
X143918504Y-97381739D01*
X144138308Y-97440635D01*
X144365000Y-97460468D01*
X144591692Y-97440635D01*
X144811496Y-97381739D01*
X145017734Y-97285568D01*
X145204139Y-97155047D01*
X145365047Y-96994139D01*
X145495568Y-96807734D01*
X145591739Y-96601496D01*
X145650635Y-96381692D01*
X145670468Y-96155000D01*
X150679531Y-96155000D01*
X150699364Y-96381689D01*
X150758261Y-96601497D01*
X150854432Y-96807735D01*
X150984953Y-96994140D01*
X151145859Y-97155046D01*
X151332264Y-97285567D01*
X151332265Y-97285567D01*
X151332266Y-97285568D01*
X151538504Y-97381739D01*
X151758308Y-97440635D01*
X151985000Y-97460468D01*
X152211692Y-97440635D01*
X152431496Y-97381739D01*
X152637734Y-97285568D01*
X152824139Y-97155047D01*
X152985047Y-96994139D01*
X153115568Y-96807734D01*
X153211739Y-96601496D01*
X153264390Y-96405000D01*
X164605000Y-96405000D01*
X164605000Y-97052824D01*
X164611402Y-97112375D01*
X164661647Y-97247089D01*
X164747811Y-97362188D01*
X164862910Y-97448352D01*
X164997624Y-97498597D01*
X165057176Y-97505000D01*
X165705000Y-97505000D01*
X165705000Y-96405000D01*
X166205000Y-96405000D01*
X166205000Y-97505000D01*
X166852824Y-97505000D01*
X166912375Y-97498597D01*
X167047089Y-97448352D01*
X167162188Y-97362188D01*
X167248352Y-97247089D01*
X167298597Y-97112375D01*
X167305000Y-97052824D01*
X167305000Y-96405000D01*
X170955000Y-96405000D01*
X170955000Y-97052824D01*
X170961402Y-97112375D01*
X171011647Y-97247089D01*
X171097811Y-97362188D01*
X171212910Y-97448352D01*
X171347624Y-97498597D01*
X171407176Y-97505000D01*
X172055000Y-97505000D01*
X172055000Y-96405000D01*
X172555000Y-96405000D01*
X172555000Y-97505000D01*
X173202824Y-97505000D01*
X173262375Y-97498597D01*
X173397089Y-97448352D01*
X173512188Y-97362188D01*
X173598352Y-97247089D01*
X173648597Y-97112375D01*
X173655000Y-97052824D01*
X173655000Y-96405000D01*
X172555000Y-96405000D01*
X172055000Y-96405000D01*
X170955000Y-96405000D01*
X167305000Y-96405000D01*
X166205000Y-96405000D01*
X165705000Y-96405000D01*
X164605000Y-96405000D01*
X153264390Y-96405000D01*
X153270635Y-96381692D01*
X153290468Y-96155000D01*
X153270635Y-95928308D01*
X153264390Y-95905000D01*
X164605000Y-95905000D01*
X165705000Y-95905000D01*
X165705000Y-94805000D01*
X166205000Y-94805000D01*
X166205000Y-95905000D01*
X167305000Y-95905000D01*
X170955000Y-95905000D01*
X172055000Y-95905000D01*
X172055000Y-94805000D01*
X172555000Y-94805000D01*
X172555000Y-95905000D01*
X173655000Y-95905000D01*
X173655000Y-95257176D01*
X173648597Y-95197624D01*
X173598352Y-95062910D01*
X173512188Y-94947811D01*
X173397089Y-94861647D01*
X173262375Y-94811402D01*
X173202824Y-94805000D01*
X172555000Y-94805000D01*
X172055000Y-94805000D01*
X171407176Y-94805000D01*
X171347624Y-94811402D01*
X171212910Y-94861647D01*
X171097811Y-94947811D01*
X171011647Y-95062910D01*
X170961402Y-95197624D01*
X170955000Y-95257176D01*
X170955000Y-95905000D01*
X167305000Y-95905000D01*
X167305000Y-95257176D01*
X167298597Y-95197624D01*
X167248352Y-95062910D01*
X167162188Y-94947811D01*
X167047089Y-94861647D01*
X166912375Y-94811402D01*
X166852824Y-94805000D01*
X166205000Y-94805000D01*
X165705000Y-94805000D01*
X165057176Y-94805000D01*
X164997624Y-94811402D01*
X164862910Y-94861647D01*
X164747811Y-94947811D01*
X164661647Y-95062910D01*
X164611402Y-95197624D01*
X164605000Y-95257176D01*
X164605000Y-95905000D01*
X153264390Y-95905000D01*
X153211739Y-95708504D01*
X153115568Y-95502266D01*
X152995995Y-95331497D01*
X152985046Y-95315859D01*
X152824140Y-95154953D01*
X152637735Y-95024432D01*
X152431497Y-94928261D01*
X152211689Y-94869364D01*
X151985000Y-94849531D01*
X151758310Y-94869364D01*
X151538502Y-94928261D01*
X151332264Y-95024432D01*
X151145859Y-95154953D01*
X150984953Y-95315859D01*
X150854432Y-95502264D01*
X150758261Y-95708502D01*
X150699364Y-95928310D01*
X150679531Y-96155000D01*
X145670468Y-96155000D01*
X145650635Y-95928308D01*
X145591739Y-95708504D01*
X145495568Y-95502266D01*
X145375995Y-95331497D01*
X145365046Y-95315859D01*
X145204140Y-95154953D01*
X145017735Y-95024432D01*
X144811497Y-94928261D01*
X144591689Y-94869364D01*
X144365000Y-94849531D01*
X144138310Y-94869364D01*
X143918502Y-94928261D01*
X143712264Y-95024432D01*
X143525859Y-95154953D01*
X143364953Y-95315859D01*
X143234432Y-95502264D01*
X143138261Y-95708502D01*
X143079364Y-95928310D01*
X143059531Y-96155000D01*
X142370500Y-96155000D01*
X142370499Y-94302128D01*
X142364091Y-94242517D01*
X142313796Y-94107669D01*
X142227546Y-93992454D01*
X142112331Y-93906204D01*
X141977483Y-93855909D01*
X141917873Y-93849500D01*
X141917869Y-93849500D01*
X140022130Y-93849500D01*
X139962515Y-93855909D01*
X139827669Y-93906204D01*
X139712454Y-93992454D01*
X139626204Y-94107669D01*
X139597545Y-94184508D01*
X139561593Y-94235721D01*
X139505211Y-94262859D01*
X139442757Y-94259011D01*
X139390133Y-94225157D01*
X139381784Y-94216087D01*
X139198627Y-94073531D01*
X139198626Y-94073530D01*
X138994503Y-93963064D01*
X138994499Y-93963062D01*
X138994498Y-93963062D01*
X138774984Y-93887702D01*
X138584456Y-93855909D01*
X138546049Y-93849500D01*
X138313951Y-93849500D01*
X138275544Y-93855909D01*
X138085015Y-93887702D01*
X137865501Y-93963062D01*
X137661372Y-94073531D01*
X137478215Y-94216087D01*
X137321020Y-94386848D01*
X137194076Y-94581150D01*
X137100844Y-94793696D01*
X137100842Y-94793700D01*
X137100843Y-94793700D01*
X137061817Y-94947811D01*
X137043865Y-95018700D01*
X137024699Y-95250000D01*
X134183576Y-95250000D01*
X134220635Y-95111692D01*
X134240468Y-94885000D01*
X134220635Y-94658308D01*
X134161739Y-94438504D01*
X134065568Y-94232266D01*
X134060590Y-94225157D01*
X133935046Y-94045859D01*
X133774140Y-93884953D01*
X133587735Y-93754432D01*
X133572023Y-93747106D01*
X133519847Y-93701348D01*
X133500428Y-93634722D01*
X133519849Y-93568097D01*
X133572026Y-93522340D01*
X133587484Y-93515131D01*
X133660472Y-93464025D01*
X132935001Y-92738553D01*
X132935000Y-92738553D01*
X132209526Y-93464025D01*
X132209526Y-93464026D01*
X132282515Y-93515133D01*
X132297975Y-93522342D01*
X132350150Y-93568098D01*
X132369570Y-93634722D01*
X132350152Y-93701347D01*
X132297978Y-93747104D01*
X132282268Y-93754429D01*
X132095859Y-93884953D01*
X131934953Y-94045859D01*
X131804432Y-94232264D01*
X131708261Y-94438502D01*
X131649364Y-94658310D01*
X131629531Y-94884999D01*
X131229570Y-94884999D01*
X131226608Y-92384999D01*
X131630033Y-92384999D01*
X131649858Y-92611602D01*
X131708733Y-92831326D01*
X131804866Y-93037484D01*
X131855972Y-93110471D01*
X131855974Y-93110472D01*
X132581446Y-92385001D01*
X133288553Y-92385001D01*
X134014025Y-93110472D01*
X134065134Y-93037480D01*
X134161266Y-92831326D01*
X134220141Y-92611602D01*
X134239966Y-92384999D01*
X134220141Y-92158397D01*
X134161266Y-91938673D01*
X134065133Y-91732515D01*
X134014025Y-91659526D01*
X133288553Y-92385000D01*
X133288553Y-92385001D01*
X132581446Y-92385001D01*
X132581446Y-92385000D01*
X131855973Y-91659526D01*
X131855973Y-91659527D01*
X131804865Y-91732516D01*
X131708733Y-91938672D01*
X131649858Y-92158397D01*
X131630033Y-92384999D01*
X131226608Y-92384999D01*
X131225329Y-91305973D01*
X132209526Y-91305973D01*
X132935000Y-92031446D01*
X132935001Y-92031446D01*
X133660472Y-91305974D01*
X133660471Y-91305972D01*
X133587484Y-91254866D01*
X133381326Y-91158733D01*
X133161602Y-91099858D01*
X132935000Y-91080033D01*
X132708397Y-91099858D01*
X132488672Y-91158733D01*
X132282516Y-91254865D01*
X132209527Y-91305973D01*
X132209526Y-91305973D01*
X131225329Y-91305973D01*
X131225055Y-91074999D01*
X145599531Y-91074999D01*
X145619364Y-91301689D01*
X145678261Y-91521497D01*
X145774432Y-91727735D01*
X145904953Y-91914140D01*
X146065859Y-92075046D01*
X146252264Y-92205567D01*
X146252265Y-92205567D01*
X146252266Y-92205568D01*
X146458504Y-92301739D01*
X146678308Y-92360635D01*
X146829436Y-92373857D01*
X146904999Y-92380468D01*
X146904999Y-92380467D01*
X146905000Y-92380468D01*
X147131692Y-92360635D01*
X147351496Y-92301739D01*
X147557734Y-92205568D01*
X147744139Y-92075047D01*
X147905047Y-91914139D01*
X148035568Y-91727734D01*
X148131739Y-91521496D01*
X148190635Y-91301692D01*
X148210468Y-91075000D01*
X148190635Y-90848308D01*
X148131739Y-90628504D01*
X148035568Y-90422266D01*
X148017996Y-90397171D01*
X147905046Y-90235859D01*
X147744140Y-90074953D01*
X147557735Y-89944432D01*
X147351497Y-89848261D01*
X147131689Y-89789364D01*
X146905000Y-89769531D01*
X146678310Y-89789364D01*
X146458502Y-89848261D01*
X146252264Y-89944432D01*
X146065859Y-90074953D01*
X145904953Y-90235859D01*
X145774432Y-90422264D01*
X145678261Y-90628502D01*
X145619364Y-90848310D01*
X145599531Y-91074999D01*
X131225055Y-91074999D01*
X131220482Y-87215000D01*
X131604364Y-87215000D01*
X131661569Y-87428492D01*
X131761399Y-87642576D01*
X131896893Y-87836081D01*
X132063918Y-88003106D01*
X132257423Y-88138600D01*
X132471507Y-88238430D01*
X132684999Y-88295635D01*
X132685000Y-88295636D01*
X132685000Y-87215000D01*
X133185000Y-87215000D01*
X133185000Y-88295635D01*
X133398492Y-88238430D01*
X133612576Y-88138600D01*
X133806081Y-88003106D01*
X133973106Y-87836081D01*
X134108600Y-87642576D01*
X134208430Y-87428492D01*
X134265636Y-87215000D01*
X133185000Y-87215000D01*
X132685000Y-87215000D01*
X131604364Y-87215000D01*
X131220482Y-87215000D01*
X131217176Y-84424999D01*
X131579340Y-84424999D01*
X131599936Y-84660407D01*
X131628836Y-84768261D01*
X131661097Y-84888663D01*
X131760965Y-85102830D01*
X131896505Y-85296401D01*
X132063599Y-85463495D01*
X132249597Y-85593732D01*
X132288460Y-85638048D01*
X132302471Y-85695305D01*
X132288461Y-85752561D01*
X132249595Y-85796880D01*
X132063919Y-85926892D01*
X131896890Y-86093921D01*
X131761400Y-86287421D01*
X131661569Y-86501507D01*
X131604364Y-86714999D01*
X131604364Y-86715000D01*
X134265636Y-86715000D01*
X134265635Y-86714999D01*
X134208430Y-86501507D01*
X134108599Y-86287421D01*
X133973109Y-86093921D01*
X133806081Y-85926893D01*
X133620404Y-85796880D01*
X133581539Y-85752562D01*
X133567528Y-85695305D01*
X133581539Y-85638048D01*
X133620402Y-85593732D01*
X133806401Y-85463495D01*
X133973495Y-85296401D01*
X134108653Y-85103374D01*
X134152970Y-85064511D01*
X134210227Y-85050500D01*
X137408738Y-85050500D01*
X137466952Y-85065014D01*
X137511539Y-85105160D01*
X137532059Y-85161538D01*
X137544326Y-85278257D01*
X137602820Y-85458284D01*
X137697466Y-85622216D01*
X137729261Y-85657528D01*
X137756543Y-85707154D01*
X137758915Y-85763736D01*
X137735881Y-85815470D01*
X137692246Y-85851568D01*
X137637111Y-85864500D01*
X137067130Y-85864500D01*
X137007515Y-85870909D01*
X136872669Y-85921204D01*
X136757454Y-86007454D01*
X136671204Y-86122668D01*
X136620909Y-86257516D01*
X136614500Y-86317130D01*
X136614500Y-88212869D01*
X136620909Y-88272484D01*
X136642545Y-88330493D01*
X136671204Y-88407331D01*
X136757454Y-88522546D01*
X136872669Y-88608796D01*
X137007517Y-88659091D01*
X137067127Y-88665500D01*
X138962872Y-88665499D01*
X139022483Y-88659091D01*
X139157331Y-88608796D01*
X139272546Y-88522546D01*
X139358796Y-88407331D01*
X139387455Y-88330490D01*
X139423405Y-88279279D01*
X139479787Y-88252140D01*
X139542242Y-88255988D01*
X139594864Y-88289841D01*
X139603216Y-88298913D01*
X139786374Y-88441470D01*
X139990497Y-88551936D01*
X140023486Y-88563261D01*
X140210015Y-88627297D01*
X140210017Y-88627297D01*
X140210019Y-88627298D01*
X140438951Y-88665500D01*
X140671048Y-88665500D01*
X140671049Y-88665500D01*
X140899981Y-88627298D01*
X141119503Y-88551936D01*
X141323626Y-88441470D01*
X141506784Y-88298913D01*
X141663979Y-88128153D01*
X141790924Y-87933849D01*
X141884157Y-87721300D01*
X141907278Y-87630000D01*
X143874540Y-87630000D01*
X143894326Y-87818257D01*
X143952820Y-87998284D01*
X144047466Y-88162216D01*
X144174129Y-88302889D01*
X144327269Y-88414151D01*
X144500197Y-88491144D01*
X144685352Y-88530500D01*
X144685354Y-88530500D01*
X144874646Y-88530500D01*
X144874648Y-88530500D01*
X144998083Y-88504262D01*
X145059803Y-88491144D01*
X145232730Y-88414151D01*
X145385871Y-88302888D01*
X145391598Y-88296526D01*
X145433312Y-88266220D01*
X145483747Y-88255500D01*
X148507256Y-88255500D01*
X148527762Y-88257764D01*
X148530665Y-88257672D01*
X148530667Y-88257673D01*
X148597872Y-88255561D01*
X148601768Y-88255500D01*
X148629349Y-88255500D01*
X148629350Y-88255500D01*
X148633319Y-88254998D01*
X148644965Y-88254080D01*
X148688627Y-88252709D01*
X148707859Y-88247120D01*
X148726918Y-88243174D01*
X148734099Y-88242267D01*
X148746792Y-88240664D01*
X148787407Y-88224582D01*
X148798444Y-88220803D01*
X148840390Y-88208618D01*
X148857629Y-88198422D01*
X148875102Y-88189862D01*
X148893732Y-88182486D01*
X148929064Y-88156814D01*
X148938830Y-88150400D01*
X148976418Y-88128171D01*
X148976417Y-88128171D01*
X148976420Y-88128170D01*
X148990585Y-88114004D01*
X149005373Y-88101373D01*
X149021587Y-88089594D01*
X149049438Y-88055926D01*
X149057279Y-88047309D01*
X149807771Y-87296819D01*
X149848000Y-87269939D01*
X149895453Y-87260500D01*
X149954648Y-87260500D01*
X150078083Y-87234262D01*
X150139803Y-87221144D01*
X150312730Y-87144151D01*
X150465871Y-87032888D01*
X150486664Y-87009794D01*
X150537625Y-86975808D01*
X150598639Y-86970362D01*
X150654814Y-86994788D01*
X150692443Y-87043124D01*
X150702342Y-87103574D01*
X150689531Y-87249999D01*
X150709364Y-87476689D01*
X150768261Y-87696497D01*
X150864432Y-87902735D01*
X150994953Y-88089140D01*
X151155859Y-88250046D01*
X151270751Y-88330493D01*
X151342266Y-88380568D01*
X151400275Y-88407618D01*
X151452450Y-88453375D01*
X151471869Y-88520000D01*
X151452450Y-88586625D01*
X151400275Y-88632382D01*
X151342263Y-88659433D01*
X151155859Y-88789953D01*
X150994953Y-88950859D01*
X150864432Y-89137264D01*
X150768261Y-89343502D01*
X150709364Y-89563310D01*
X150689531Y-89790000D01*
X150709364Y-90016689D01*
X150768261Y-90236497D01*
X150864432Y-90442735D01*
X150994953Y-90629140D01*
X151155859Y-90790046D01*
X151316623Y-90902613D01*
X151355489Y-90946931D01*
X151369500Y-91004188D01*
X151369500Y-92946756D01*
X151367235Y-92967262D01*
X151369439Y-93037373D01*
X151369500Y-93041268D01*
X151369500Y-93068849D01*
X151370003Y-93072834D01*
X151370918Y-93084467D01*
X151372290Y-93128126D01*
X151377879Y-93147360D01*
X151381825Y-93166416D01*
X151384335Y-93186292D01*
X151400414Y-93226904D01*
X151404197Y-93237951D01*
X151416382Y-93279891D01*
X151426580Y-93297135D01*
X151435136Y-93314600D01*
X151442514Y-93333232D01*
X151442515Y-93333233D01*
X151468183Y-93368563D01*
X151474589Y-93378312D01*
X151477904Y-93383918D01*
X151494496Y-93434082D01*
X151514326Y-93622757D01*
X151572820Y-93802784D01*
X151667466Y-93966716D01*
X151794129Y-94107389D01*
X151947269Y-94218651D01*
X152120197Y-94295644D01*
X152305352Y-94335000D01*
X152305354Y-94335000D01*
X152494646Y-94335000D01*
X152494648Y-94335000D01*
X152618084Y-94308762D01*
X152679803Y-94295644D01*
X152852730Y-94218651D01*
X152899724Y-94184508D01*
X153005870Y-94107389D01*
X153132533Y-93966716D01*
X153227179Y-93802784D01*
X153227178Y-93802784D01*
X153285674Y-93622756D01*
X153305460Y-93434500D01*
X153285674Y-93246244D01*
X153241559Y-93110472D01*
X153227179Y-93066215D01*
X153132533Y-92902283D01*
X153005870Y-92761610D01*
X152852734Y-92650350D01*
X152757212Y-92607821D01*
X152694061Y-92579704D01*
X152655302Y-92552564D01*
X152629529Y-92512877D01*
X152620500Y-92466426D01*
X152620500Y-91004188D01*
X152634511Y-90946931D01*
X152673377Y-90902613D01*
X152834140Y-90790046D01*
X152995046Y-90629140D01*
X152995491Y-90628504D01*
X153125568Y-90442734D01*
X153221739Y-90236496D01*
X153280635Y-90016692D01*
X153300468Y-89790000D01*
X153280635Y-89563308D01*
X153221739Y-89343504D01*
X153125568Y-89137266D01*
X152995047Y-88950861D01*
X152995046Y-88950859D01*
X152834140Y-88789953D01*
X152647733Y-88659431D01*
X152589725Y-88632382D01*
X152537549Y-88586625D01*
X152518129Y-88520000D01*
X152537549Y-88453375D01*
X152589725Y-88407618D01*
X152647734Y-88380568D01*
X152834139Y-88250047D01*
X152995047Y-88089139D01*
X153125568Y-87902734D01*
X153221739Y-87696496D01*
X153280635Y-87476692D01*
X153300468Y-87250000D01*
X153280635Y-87023308D01*
X153221739Y-86803504D01*
X153125568Y-86597266D01*
X153124787Y-86596151D01*
X152995046Y-86410859D01*
X152944187Y-86360000D01*
X155304540Y-86360000D01*
X155324326Y-86548257D01*
X155382820Y-86728284D01*
X155477466Y-86892216D01*
X155604129Y-87032889D01*
X155757269Y-87144151D01*
X155930197Y-87221144D01*
X156115352Y-87260500D01*
X156115354Y-87260500D01*
X156304646Y-87260500D01*
X156304648Y-87260500D01*
X156428083Y-87234262D01*
X156489803Y-87221144D01*
X156662730Y-87144151D01*
X156726550Y-87097783D01*
X156815870Y-87032889D01*
X156942533Y-86892216D01*
X157037179Y-86728284D01*
X157060975Y-86655047D01*
X157095674Y-86548256D01*
X157115460Y-86360000D01*
X157095674Y-86171744D01*
X157077292Y-86115173D01*
X157073934Y-86051076D01*
X157103074Y-85993885D01*
X157156906Y-85958926D01*
X157221005Y-85955567D01*
X157385352Y-85990500D01*
X157385354Y-85990500D01*
X157444548Y-85990500D01*
X157492001Y-85999939D01*
X157532228Y-86026818D01*
X157779421Y-86274012D01*
X158014196Y-86508787D01*
X158027096Y-86524888D01*
X158078223Y-86572900D01*
X158081019Y-86575610D01*
X158100529Y-86595120D01*
X158103711Y-86597588D01*
X158112571Y-86605155D01*
X158144418Y-86635062D01*
X158161972Y-86644712D01*
X158178236Y-86655396D01*
X158189972Y-86664499D01*
X158194064Y-86667673D01*
X158218909Y-86678424D01*
X158234152Y-86685021D01*
X158244631Y-86690154D01*
X158282908Y-86711197D01*
X158283247Y-86711284D01*
X158289431Y-86714782D01*
X158296637Y-86718744D01*
X158296588Y-86718831D01*
X158339479Y-86743096D01*
X158372076Y-86798876D01*
X158372189Y-86863482D01*
X158329364Y-87023308D01*
X158309531Y-87250000D01*
X158329364Y-87476689D01*
X158388261Y-87696497D01*
X158484432Y-87902735D01*
X158614953Y-88089140D01*
X158775859Y-88250046D01*
X158890751Y-88330493D01*
X158962266Y-88380568D01*
X159020275Y-88407618D01*
X159072450Y-88453375D01*
X159091869Y-88520000D01*
X159072450Y-88586625D01*
X159020275Y-88632382D01*
X158962263Y-88659433D01*
X158775859Y-88789953D01*
X158614953Y-88950859D01*
X158484432Y-89137264D01*
X158388261Y-89343502D01*
X158329364Y-89563310D01*
X158309531Y-89790000D01*
X158329364Y-90016689D01*
X158388261Y-90236497D01*
X158484432Y-90442735D01*
X158614953Y-90629140D01*
X158775859Y-90790046D01*
X158962264Y-90920567D01*
X158962265Y-90920567D01*
X158962266Y-90920568D01*
X159168504Y-91016739D01*
X159388308Y-91075635D01*
X159615000Y-91095468D01*
X159841692Y-91075635D01*
X159844066Y-91074999D01*
X164599340Y-91074999D01*
X164619936Y-91310407D01*
X164664709Y-91477501D01*
X164681097Y-91538663D01*
X164780965Y-91752830D01*
X164916505Y-91946401D01*
X165083599Y-92113495D01*
X165277170Y-92249035D01*
X165491337Y-92348903D01*
X165719591Y-92410062D01*
X165719592Y-92410063D01*
X165954999Y-92430659D01*
X165954999Y-92430658D01*
X165955000Y-92430659D01*
X166190408Y-92410063D01*
X166418663Y-92348903D01*
X166632830Y-92249035D01*
X166826401Y-92113495D01*
X166993495Y-91946401D01*
X167129035Y-91752830D01*
X167228903Y-91538663D01*
X167290063Y-91310408D01*
X167310659Y-91075000D01*
X167310659Y-91074999D01*
X170949340Y-91074999D01*
X170969936Y-91310407D01*
X171014709Y-91477501D01*
X171031097Y-91538663D01*
X171130965Y-91752830D01*
X171266505Y-91946401D01*
X171433599Y-92113495D01*
X171627170Y-92249035D01*
X171841337Y-92348903D01*
X172069591Y-92410062D01*
X172069592Y-92410063D01*
X172304999Y-92430659D01*
X172304999Y-92430658D01*
X172305000Y-92430659D01*
X172540408Y-92410063D01*
X172768663Y-92348903D01*
X172982830Y-92249035D01*
X173176401Y-92113495D01*
X173343495Y-91946401D01*
X173479035Y-91752830D01*
X173578903Y-91538663D01*
X173640063Y-91310408D01*
X173660659Y-91075000D01*
X173640063Y-90839592D01*
X173578903Y-90611337D01*
X173479035Y-90397171D01*
X173343495Y-90203599D01*
X173176401Y-90036505D01*
X172982830Y-89900965D01*
X172768663Y-89801097D01*
X172707502Y-89784709D01*
X172540407Y-89739936D01*
X172304999Y-89719340D01*
X172069592Y-89739936D01*
X171841336Y-89801097D01*
X171627170Y-89900965D01*
X171433598Y-90036505D01*
X171266505Y-90203598D01*
X171130965Y-90397170D01*
X171031097Y-90611336D01*
X170969936Y-90839592D01*
X170949340Y-91074999D01*
X167310659Y-91074999D01*
X167290063Y-90839592D01*
X167228903Y-90611337D01*
X167129035Y-90397171D01*
X166993495Y-90203599D01*
X166826401Y-90036505D01*
X166632830Y-89900965D01*
X166418663Y-89801097D01*
X166357502Y-89784709D01*
X166190407Y-89739936D01*
X165954999Y-89719340D01*
X165719592Y-89739936D01*
X165491336Y-89801097D01*
X165277170Y-89900965D01*
X165083598Y-90036505D01*
X164916505Y-90203598D01*
X164780965Y-90397170D01*
X164681097Y-90611336D01*
X164619936Y-90839592D01*
X164599340Y-91074999D01*
X159844066Y-91074999D01*
X160061496Y-91016739D01*
X160267734Y-90920568D01*
X160454139Y-90790047D01*
X160615047Y-90629139D01*
X160745568Y-90442734D01*
X160841739Y-90236496D01*
X160900635Y-90016692D01*
X160920468Y-89790000D01*
X160900635Y-89563308D01*
X160841739Y-89343504D01*
X160745568Y-89137266D01*
X160615047Y-88950861D01*
X160615046Y-88950859D01*
X160454140Y-88789953D01*
X160267733Y-88659431D01*
X160209725Y-88632382D01*
X160157549Y-88586625D01*
X160138129Y-88520000D01*
X160157549Y-88453375D01*
X160209725Y-88407618D01*
X160267734Y-88380568D01*
X160454139Y-88250047D01*
X160615047Y-88089139D01*
X160745568Y-87902734D01*
X160841739Y-87696496D01*
X160900635Y-87476692D01*
X160920468Y-87250000D01*
X160900635Y-87023308D01*
X160897014Y-87009795D01*
X160869362Y-86906593D01*
X160867520Y-86850309D01*
X160890761Y-86799013D01*
X160934293Y-86763288D01*
X160989137Y-86750500D01*
X164554548Y-86750500D01*
X164602001Y-86759939D01*
X164642229Y-86786819D01*
X165869196Y-88013787D01*
X165882096Y-88029888D01*
X165933223Y-88077900D01*
X165936020Y-88080611D01*
X165955529Y-88100120D01*
X165958711Y-88102588D01*
X165967571Y-88110155D01*
X165997861Y-88138600D01*
X165999418Y-88140062D01*
X166016970Y-88149711D01*
X166033238Y-88160397D01*
X166049064Y-88172673D01*
X166089146Y-88190017D01*
X166099633Y-88195155D01*
X166137907Y-88216197D01*
X166146410Y-88218379D01*
X166157308Y-88221178D01*
X166175713Y-88227478D01*
X166194104Y-88235437D01*
X166237250Y-88242270D01*
X166248668Y-88244635D01*
X166290981Y-88255500D01*
X166311016Y-88255500D01*
X166330415Y-88257027D01*
X166350196Y-88260160D01*
X166393674Y-88256050D01*
X166405344Y-88255500D01*
X171367256Y-88255500D01*
X171387762Y-88257764D01*
X171390665Y-88257672D01*
X171390667Y-88257673D01*
X171457872Y-88255561D01*
X171461768Y-88255500D01*
X171489349Y-88255500D01*
X171489350Y-88255500D01*
X171493319Y-88254998D01*
X171504965Y-88254080D01*
X171548627Y-88252709D01*
X171567859Y-88247120D01*
X171586918Y-88243174D01*
X171594099Y-88242267D01*
X171606792Y-88240664D01*
X171647407Y-88224582D01*
X171658444Y-88220803D01*
X171700390Y-88208618D01*
X171717629Y-88198422D01*
X171735102Y-88189862D01*
X171753732Y-88182486D01*
X171789064Y-88156814D01*
X171798830Y-88150400D01*
X171836418Y-88128171D01*
X171836417Y-88128171D01*
X171836420Y-88128170D01*
X171850585Y-88114004D01*
X171865373Y-88101373D01*
X171881587Y-88089594D01*
X171909438Y-88055926D01*
X171917279Y-88047309D01*
X172305178Y-87659411D01*
X172360763Y-87627319D01*
X172424951Y-87627319D01*
X172493308Y-87645635D01*
X172720000Y-87665468D01*
X172946692Y-87645635D01*
X173166496Y-87586739D01*
X173372734Y-87490568D01*
X173559139Y-87360047D01*
X173720047Y-87199139D01*
X173850568Y-87012734D01*
X173946739Y-86806496D01*
X174005635Y-86586692D01*
X174025468Y-86360000D01*
X174005635Y-86133308D01*
X173946739Y-85913504D01*
X173850568Y-85707266D01*
X173849507Y-85705751D01*
X173720046Y-85520859D01*
X173559140Y-85359953D01*
X173372735Y-85229432D01*
X173166497Y-85133261D01*
X172946689Y-85074364D01*
X172719999Y-85054531D01*
X172493310Y-85074364D01*
X172273502Y-85133261D01*
X172067264Y-85229432D01*
X171880859Y-85359953D01*
X171719953Y-85520859D01*
X171589432Y-85707264D01*
X171493261Y-85913502D01*
X171434364Y-86133310D01*
X171414531Y-86359999D01*
X171434364Y-86586690D01*
X171452680Y-86655047D01*
X171452680Y-86719234D01*
X171420586Y-86774821D01*
X171227225Y-86968183D01*
X171187000Y-86995061D01*
X171139547Y-87004500D01*
X168343961Y-87004500D01*
X168279633Y-86986509D01*
X168233972Y-86937757D01*
X168220226Y-86872391D01*
X168242386Y-86809377D01*
X168350447Y-86655047D01*
X168355568Y-86647734D01*
X168451739Y-86441496D01*
X168510635Y-86221692D01*
X168530468Y-85995000D01*
X168530370Y-85993885D01*
X168519611Y-85870909D01*
X168510635Y-85768308D01*
X168451739Y-85548504D01*
X168355568Y-85342266D01*
X168342144Y-85323095D01*
X168225046Y-85155859D01*
X168064140Y-84994953D01*
X167877735Y-84864432D01*
X167671497Y-84768261D01*
X167451689Y-84709364D01*
X167225000Y-84689531D01*
X166998310Y-84709364D01*
X166778502Y-84768261D01*
X166572264Y-84864432D01*
X166385859Y-84994953D01*
X166224953Y-85155859D01*
X166094432Y-85342264D01*
X165998261Y-85548502D01*
X165939364Y-85768310D01*
X165918586Y-86005807D01*
X165915243Y-86005514D01*
X165909190Y-86043614D01*
X165873073Y-86091506D01*
X165818703Y-86116842D01*
X165758801Y-86113693D01*
X165707387Y-86082796D01*
X165365802Y-85741211D01*
X165352906Y-85725113D01*
X165301775Y-85677098D01*
X165298978Y-85674387D01*
X165279470Y-85654879D01*
X165276290Y-85652412D01*
X165267424Y-85644839D01*
X165235582Y-85614938D01*
X165218024Y-85605285D01*
X165201764Y-85594604D01*
X165185936Y-85582327D01*
X165145851Y-85564980D01*
X165135361Y-85559841D01*
X165097091Y-85538802D01*
X165077691Y-85533821D01*
X165059284Y-85527519D01*
X165040897Y-85519562D01*
X164997758Y-85512729D01*
X164986324Y-85510361D01*
X164944019Y-85499500D01*
X164923984Y-85499500D01*
X164904586Y-85497973D01*
X164897162Y-85496797D01*
X164884805Y-85494840D01*
X164884804Y-85494840D01*
X164851751Y-85497964D01*
X164841325Y-85498950D01*
X164829656Y-85499500D01*
X160876434Y-85499500D01*
X160816791Y-85484214D01*
X160771853Y-85442125D01*
X160752699Y-85383610D01*
X160764052Y-85323095D01*
X160841739Y-85156496D01*
X160900635Y-84936692D01*
X160920468Y-84710000D01*
X160900635Y-84483308D01*
X160841739Y-84263504D01*
X160745568Y-84057266D01*
X160734326Y-84041211D01*
X160615046Y-83870859D01*
X160454140Y-83709953D01*
X160267732Y-83579430D01*
X160209724Y-83552380D01*
X160157549Y-83506623D01*
X160138130Y-83439997D01*
X160157550Y-83373373D01*
X160209721Y-83327619D01*
X160267734Y-83300568D01*
X160454139Y-83170047D01*
X160615047Y-83009139D01*
X160745568Y-82822734D01*
X160841739Y-82616496D01*
X160900635Y-82396692D01*
X160920468Y-82170000D01*
X160913851Y-82094366D01*
X162614483Y-82094366D01*
X162687472Y-82145473D01*
X162893630Y-82241606D01*
X163113354Y-82300481D01*
X163339956Y-82320306D01*
X163566559Y-82300481D01*
X163786283Y-82241606D01*
X163992437Y-82145474D01*
X164065429Y-82094365D01*
X163339958Y-81368893D01*
X163339957Y-81368893D01*
X162614483Y-82094365D01*
X162614483Y-82094366D01*
X160913851Y-82094366D01*
X160900635Y-81943308D01*
X160841739Y-81723504D01*
X160745568Y-81517266D01*
X160678398Y-81421337D01*
X160615046Y-81330859D01*
X160454140Y-81169953D01*
X160267736Y-81039433D01*
X160267730Y-81039430D01*
X160216069Y-81015340D01*
X162034990Y-81015340D01*
X162054815Y-81241942D01*
X162113690Y-81461666D01*
X162209823Y-81667824D01*
X162260929Y-81740811D01*
X162260931Y-81740812D01*
X162986403Y-81015341D01*
X163693510Y-81015341D01*
X164418982Y-81740812D01*
X164470091Y-81667820D01*
X164566223Y-81461666D01*
X164625098Y-81241942D01*
X164644923Y-81015340D01*
X164625098Y-80788737D01*
X164566223Y-80569013D01*
X164470090Y-80362855D01*
X164418982Y-80289866D01*
X163693510Y-81015340D01*
X163693510Y-81015341D01*
X162986403Y-81015341D01*
X162986403Y-81015340D01*
X162260930Y-80289866D01*
X162260930Y-80289867D01*
X162209822Y-80362856D01*
X162113690Y-80569012D01*
X162054815Y-80788737D01*
X162034990Y-81015340D01*
X160216069Y-81015340D01*
X160209132Y-81012105D01*
X160156958Y-80966348D01*
X160137539Y-80899723D01*
X160156959Y-80833098D01*
X160209135Y-80787342D01*
X160267479Y-80760135D01*
X160453819Y-80629658D01*
X160614658Y-80468819D01*
X160745134Y-80282480D01*
X160841266Y-80076326D01*
X160878783Y-79936313D01*
X162614483Y-79936313D01*
X163339957Y-80661786D01*
X163339958Y-80661786D01*
X164065429Y-79936314D01*
X164065428Y-79936312D01*
X163992441Y-79885206D01*
X163786283Y-79789073D01*
X163566559Y-79730198D01*
X163339956Y-79710373D01*
X163113354Y-79730198D01*
X162893629Y-79789073D01*
X162687473Y-79885205D01*
X162614484Y-79936313D01*
X162614483Y-79936313D01*
X160878783Y-79936313D01*
X160893872Y-79880000D01*
X158336128Y-79880000D01*
X158388733Y-80076326D01*
X158484865Y-80282480D01*
X158615341Y-80468819D01*
X158776180Y-80629658D01*
X158962519Y-80760134D01*
X159020865Y-80787342D01*
X159073040Y-80833099D01*
X159092460Y-80899723D01*
X159073041Y-80966348D01*
X159020866Y-81012105D01*
X158962267Y-81039430D01*
X158775859Y-81169953D01*
X158614953Y-81330859D01*
X158484432Y-81517264D01*
X158388261Y-81723502D01*
X158329364Y-81943310D01*
X158309531Y-82170000D01*
X158329364Y-82396689D01*
X158388261Y-82616497D01*
X158484432Y-82822735D01*
X158614953Y-83009140D01*
X158775859Y-83170046D01*
X158891425Y-83250965D01*
X158962266Y-83300568D01*
X159020273Y-83327617D01*
X159072449Y-83373373D01*
X159091869Y-83439997D01*
X159072451Y-83506622D01*
X159020276Y-83552380D01*
X158962266Y-83579431D01*
X158775859Y-83709953D01*
X158614953Y-83870859D01*
X158484432Y-84057264D01*
X158388261Y-84263502D01*
X158346300Y-84420103D01*
X158313051Y-84476831D01*
X158255472Y-84508583D01*
X158189754Y-84506431D01*
X158134375Y-84470981D01*
X158085870Y-84417110D01*
X157932730Y-84305848D01*
X157759802Y-84228855D01*
X157574648Y-84189500D01*
X157574646Y-84189500D01*
X157385354Y-84189500D01*
X157385352Y-84189500D01*
X157200197Y-84228855D01*
X157015364Y-84311149D01*
X157014316Y-84308796D01*
X156969233Y-84325431D01*
X156903207Y-84312300D01*
X156853773Y-84266605D01*
X156835500Y-84201814D01*
X156835500Y-83248687D01*
X156843736Y-83204249D01*
X156867347Y-83165717D01*
X156942533Y-83082216D01*
X156959156Y-83053425D01*
X157037179Y-82918284D01*
X157068225Y-82822734D01*
X157095674Y-82738256D01*
X157115460Y-82550000D01*
X157095674Y-82361744D01*
X157056639Y-82241606D01*
X157037179Y-82181715D01*
X156942533Y-82017783D01*
X156815870Y-81877110D01*
X156662730Y-81765848D01*
X156489802Y-81688855D01*
X156304648Y-81649500D01*
X156304646Y-81649500D01*
X156115354Y-81649500D01*
X156115352Y-81649500D01*
X155930197Y-81688855D01*
X155757269Y-81765848D01*
X155604129Y-81877110D01*
X155477466Y-82017783D01*
X155382820Y-82181715D01*
X155324326Y-82361742D01*
X155304540Y-82549999D01*
X155304540Y-82550000D01*
X155308071Y-82583598D01*
X155324326Y-82738257D01*
X155382820Y-82918284D01*
X155477464Y-83082213D01*
X155477467Y-83082216D01*
X155552652Y-83165717D01*
X155576264Y-83204249D01*
X155584500Y-83248687D01*
X155584500Y-85661313D01*
X155576264Y-85705751D01*
X155552652Y-85744282D01*
X155534207Y-85764768D01*
X155477464Y-85827786D01*
X155382820Y-85991715D01*
X155324326Y-86171742D01*
X155304540Y-86360000D01*
X152944187Y-86360000D01*
X152834140Y-86249953D01*
X152647733Y-86119431D01*
X152606727Y-86100310D01*
X152589724Y-86092381D01*
X152537549Y-86046625D01*
X152518129Y-85980000D01*
X152537549Y-85913375D01*
X152589725Y-85867618D01*
X152647734Y-85840568D01*
X152834139Y-85710047D01*
X152995047Y-85549139D01*
X153125568Y-85362734D01*
X153221739Y-85156496D01*
X153280635Y-84936692D01*
X153300468Y-84710000D01*
X153280635Y-84483308D01*
X153221739Y-84263504D01*
X153125568Y-84057266D01*
X153114326Y-84041211D01*
X152995046Y-83870859D01*
X152834140Y-83709953D01*
X152647732Y-83579430D01*
X152589724Y-83552380D01*
X152537549Y-83506623D01*
X152518130Y-83439997D01*
X152537550Y-83373373D01*
X152589721Y-83327619D01*
X152647734Y-83300568D01*
X152834139Y-83170047D01*
X152995047Y-83009139D01*
X153125568Y-82822734D01*
X153221739Y-82616496D01*
X153280635Y-82396692D01*
X153300468Y-82170000D01*
X153280635Y-81943308D01*
X153221739Y-81723504D01*
X153125568Y-81517266D01*
X153058398Y-81421337D01*
X152995046Y-81330859D01*
X152834140Y-81169953D01*
X152647736Y-81039433D01*
X152589723Y-81012381D01*
X152537548Y-80966623D01*
X152518129Y-80899997D01*
X152537549Y-80833372D01*
X152589721Y-80787619D01*
X152647734Y-80760568D01*
X152834139Y-80630047D01*
X152995047Y-80469139D01*
X153125568Y-80282734D01*
X153221739Y-80076496D01*
X153280635Y-79856692D01*
X153300468Y-79630000D01*
X153280635Y-79403308D01*
X153221739Y-79183504D01*
X153125568Y-78977266D01*
X153058398Y-78881337D01*
X152995046Y-78790859D01*
X152834140Y-78629953D01*
X152647736Y-78499433D01*
X152589723Y-78472381D01*
X152537548Y-78426623D01*
X152518129Y-78359997D01*
X152537549Y-78293372D01*
X152589721Y-78247619D01*
X152647734Y-78220568D01*
X152834139Y-78090047D01*
X152995047Y-77929139D01*
X153125568Y-77742734D01*
X153221739Y-77536496D01*
X153280635Y-77316692D01*
X153300468Y-77090000D01*
X158309531Y-77090000D01*
X158329364Y-77316689D01*
X158388261Y-77536497D01*
X158484432Y-77742735D01*
X158614953Y-77929140D01*
X158775859Y-78090046D01*
X158962264Y-78220567D01*
X158962265Y-78220567D01*
X158962266Y-78220568D01*
X159020865Y-78247893D01*
X159073040Y-78293650D01*
X159092460Y-78360274D01*
X159073041Y-78426899D01*
X159020866Y-78472656D01*
X158962522Y-78499863D01*
X158776180Y-78630341D01*
X158615341Y-78791180D01*
X158484865Y-78977519D01*
X158388733Y-79183673D01*
X158336128Y-79379999D01*
X158336128Y-79380000D01*
X160893872Y-79380000D01*
X160893871Y-79379999D01*
X160841266Y-79183673D01*
X160745134Y-78977519D01*
X160614658Y-78791180D01*
X160453819Y-78630341D01*
X160267482Y-78499866D01*
X160209133Y-78472657D01*
X160156958Y-78426899D01*
X160137539Y-78360274D01*
X160156959Y-78293649D01*
X160209134Y-78247893D01*
X160267734Y-78220568D01*
X160454139Y-78090047D01*
X160615047Y-77929139D01*
X160745568Y-77742734D01*
X160841739Y-77536496D01*
X160900635Y-77316692D01*
X160920468Y-77090000D01*
X160900635Y-76863308D01*
X160841739Y-76643504D01*
X160745568Y-76437266D01*
X160678398Y-76341337D01*
X160615046Y-76250859D01*
X160454140Y-76089953D01*
X160347579Y-76015339D01*
X162034488Y-76015339D01*
X162054321Y-76242029D01*
X162113218Y-76461837D01*
X162209389Y-76668075D01*
X162339910Y-76854480D01*
X162500816Y-77015386D01*
X162687221Y-77145907D01*
X162687222Y-77145907D01*
X162687223Y-77145908D01*
X162893461Y-77242079D01*
X163113265Y-77300975D01*
X163264392Y-77314196D01*
X163339956Y-77320808D01*
X163339956Y-77320807D01*
X163339957Y-77320808D01*
X163566649Y-77300975D01*
X163786453Y-77242079D01*
X163992691Y-77145908D01*
X164179096Y-77015387D01*
X164340004Y-76854479D01*
X164470525Y-76668074D01*
X164566696Y-76461836D01*
X164625592Y-76242032D01*
X164645425Y-76015340D01*
X164625592Y-75788648D01*
X164566696Y-75568844D01*
X164470525Y-75362606D01*
X164429135Y-75303495D01*
X164340003Y-75176199D01*
X164179097Y-75015293D01*
X163992692Y-74884772D01*
X163786454Y-74788601D01*
X163566646Y-74729704D01*
X163339956Y-74709871D01*
X163113267Y-74729704D01*
X162893459Y-74788601D01*
X162687221Y-74884772D01*
X162500816Y-75015293D01*
X162339910Y-75176199D01*
X162209389Y-75362604D01*
X162113218Y-75568842D01*
X162054321Y-75788650D01*
X162034488Y-76015339D01*
X160347579Y-76015339D01*
X160267733Y-75959431D01*
X160209725Y-75932382D01*
X160157549Y-75886625D01*
X160138129Y-75820000D01*
X160157549Y-75753375D01*
X160209725Y-75707618D01*
X160210317Y-75707342D01*
X160267734Y-75680568D01*
X160454139Y-75550047D01*
X160615047Y-75389139D01*
X160745568Y-75202734D01*
X160841739Y-74996496D01*
X160900635Y-74776692D01*
X160920468Y-74550000D01*
X160900635Y-74323308D01*
X160841739Y-74103504D01*
X160745568Y-73897266D01*
X160678398Y-73801337D01*
X160615046Y-73710859D01*
X160454140Y-73549953D01*
X160267733Y-73419431D01*
X160209725Y-73392382D01*
X160157549Y-73346625D01*
X160138129Y-73280000D01*
X160157549Y-73213375D01*
X160209725Y-73167618D01*
X160267734Y-73140568D01*
X160454139Y-73010047D01*
X160615047Y-72849139D01*
X160745568Y-72662734D01*
X160841739Y-72456496D01*
X160900635Y-72236692D01*
X160920468Y-72010000D01*
X160900635Y-71783308D01*
X160841739Y-71563504D01*
X160745568Y-71357266D01*
X160692514Y-71281497D01*
X160615046Y-71170859D01*
X160454140Y-71009953D01*
X160267733Y-70879431D01*
X160209725Y-70852382D01*
X160157549Y-70806625D01*
X160138129Y-70740000D01*
X160157549Y-70673375D01*
X160209725Y-70627618D01*
X160267734Y-70600568D01*
X160454139Y-70470047D01*
X160615047Y-70309139D01*
X160745568Y-70122734D01*
X160841739Y-69916496D01*
X160900635Y-69696692D01*
X160920468Y-69470000D01*
X160900635Y-69243308D01*
X160841739Y-69023504D01*
X160745568Y-68817266D01*
X160678398Y-68721337D01*
X160615046Y-68630859D01*
X160454140Y-68469953D01*
X160267733Y-68339431D01*
X160209725Y-68312382D01*
X160157549Y-68266625D01*
X160138129Y-68200000D01*
X160157549Y-68133375D01*
X160209725Y-68087618D01*
X160267734Y-68060568D01*
X160454139Y-67930047D01*
X160615047Y-67769139D01*
X160745568Y-67582734D01*
X160841739Y-67376496D01*
X160900635Y-67156692D01*
X160920468Y-66930000D01*
X160905072Y-66754026D01*
X162689526Y-66754026D01*
X162762515Y-66805133D01*
X162968673Y-66901266D01*
X163188397Y-66960141D01*
X163415000Y-66979966D01*
X163641602Y-66960141D01*
X163861326Y-66901266D01*
X164067480Y-66805134D01*
X164140472Y-66754025D01*
X163415001Y-66028553D01*
X163415000Y-66028553D01*
X162689526Y-66754025D01*
X162689526Y-66754026D01*
X160905072Y-66754026D01*
X160900635Y-66703308D01*
X160841739Y-66483504D01*
X160745568Y-66277266D01*
X160678398Y-66181337D01*
X160615046Y-66090859D01*
X160454140Y-65929953D01*
X160267733Y-65799431D01*
X160209725Y-65772382D01*
X160157549Y-65726625D01*
X160142501Y-65675000D01*
X162110033Y-65675000D01*
X162129858Y-65901602D01*
X162188733Y-66121326D01*
X162284866Y-66327484D01*
X162335972Y-66400471D01*
X162335973Y-66400472D01*
X163061446Y-65675000D01*
X163768553Y-65675000D01*
X164494025Y-66400472D01*
X164545134Y-66327480D01*
X164641266Y-66121326D01*
X164700141Y-65901602D01*
X164719966Y-65675000D01*
X164700141Y-65448397D01*
X164641266Y-65228673D01*
X164545133Y-65022515D01*
X164494025Y-64949526D01*
X163768553Y-65674998D01*
X163768553Y-65675000D01*
X163061446Y-65675000D01*
X163061446Y-65674998D01*
X162335973Y-64949527D01*
X162284865Y-65022516D01*
X162188733Y-65228672D01*
X162129858Y-65448397D01*
X162110033Y-65675000D01*
X160142501Y-65675000D01*
X160138129Y-65660000D01*
X160157549Y-65593375D01*
X160209725Y-65547618D01*
X160267734Y-65520568D01*
X160454139Y-65390047D01*
X160615047Y-65229139D01*
X160745568Y-65042734D01*
X160841739Y-64836496D01*
X160900635Y-64616692D01*
X160902448Y-64595973D01*
X162689526Y-64595973D01*
X163415000Y-65321446D01*
X163415001Y-65321446D01*
X164140472Y-64595974D01*
X164140471Y-64595972D01*
X164067484Y-64544866D01*
X163861326Y-64448733D01*
X163641602Y-64389858D01*
X163415000Y-64370033D01*
X163188397Y-64389858D01*
X162968672Y-64448733D01*
X162762516Y-64544865D01*
X162689527Y-64595973D01*
X162689526Y-64595973D01*
X160902448Y-64595973D01*
X160920468Y-64390000D01*
X160900635Y-64163308D01*
X160841739Y-63943504D01*
X160745568Y-63737266D01*
X160740447Y-63729953D01*
X160615046Y-63550859D01*
X160454140Y-63389953D01*
X160267733Y-63259431D01*
X160209725Y-63232382D01*
X160157549Y-63186625D01*
X160138129Y-63120000D01*
X160157549Y-63053375D01*
X160209725Y-63007618D01*
X160267734Y-62980568D01*
X160454139Y-62850047D01*
X160615047Y-62689139D01*
X160745568Y-62502734D01*
X160841739Y-62296496D01*
X160900635Y-62076692D01*
X160920468Y-61850000D01*
X160900635Y-61623308D01*
X160841739Y-61403504D01*
X160745568Y-61197266D01*
X160713154Y-61150974D01*
X160615046Y-61010859D01*
X160564187Y-60960000D01*
X161654540Y-60960000D01*
X161674326Y-61148257D01*
X161732820Y-61328284D01*
X161827466Y-61492216D01*
X161954129Y-61632889D01*
X162107269Y-61744151D01*
X162280197Y-61821144D01*
X162465352Y-61860500D01*
X162465354Y-61860500D01*
X162524548Y-61860500D01*
X162572001Y-61869939D01*
X162612229Y-61896819D01*
X166563181Y-65847772D01*
X166590061Y-65888000D01*
X166599500Y-65935453D01*
X166599500Y-77160812D01*
X166585489Y-77218069D01*
X166546623Y-77262387D01*
X166385859Y-77374953D01*
X166224953Y-77535859D01*
X166094432Y-77722264D01*
X165998261Y-77928502D01*
X165939364Y-78148310D01*
X165919531Y-78374999D01*
X165939364Y-78601689D01*
X165998261Y-78821497D01*
X166094432Y-79027735D01*
X166224953Y-79214140D01*
X166385859Y-79375046D01*
X166572264Y-79505567D01*
X166572265Y-79505567D01*
X166572266Y-79505568D01*
X166778504Y-79601739D01*
X166998308Y-79660635D01*
X167225000Y-79680468D01*
X167451692Y-79660635D01*
X167671496Y-79601739D01*
X167877734Y-79505568D01*
X168064139Y-79375047D01*
X168225047Y-79214139D01*
X168355568Y-79027734D01*
X168451739Y-78821496D01*
X168473576Y-78740000D01*
X171414531Y-78740000D01*
X171434364Y-78966689D01*
X171493261Y-79186497D01*
X171589432Y-79392735D01*
X171719953Y-79579140D01*
X171880859Y-79740046D01*
X172067264Y-79870567D01*
X172067265Y-79870567D01*
X172067266Y-79870568D01*
X172273504Y-79966739D01*
X172493308Y-80025635D01*
X172720000Y-80045468D01*
X172946692Y-80025635D01*
X173166496Y-79966739D01*
X173372734Y-79870568D01*
X173559139Y-79740047D01*
X173720047Y-79579139D01*
X173850568Y-79392734D01*
X173946739Y-79186496D01*
X174005635Y-78966692D01*
X174025468Y-78740000D01*
X174005635Y-78513308D01*
X173946739Y-78293504D01*
X173850568Y-78087266D01*
X173841979Y-78075000D01*
X173720046Y-77900859D01*
X173559140Y-77739953D01*
X173372735Y-77609432D01*
X173166497Y-77513261D01*
X172946689Y-77454364D01*
X172720000Y-77434531D01*
X172493310Y-77454364D01*
X172273502Y-77513261D01*
X172067264Y-77609432D01*
X171880859Y-77739953D01*
X171719953Y-77900859D01*
X171589432Y-78087264D01*
X171493261Y-78293502D01*
X171434364Y-78513310D01*
X171414531Y-78740000D01*
X168473576Y-78740000D01*
X168510635Y-78601692D01*
X168530468Y-78375000D01*
X168510635Y-78148308D01*
X168451739Y-77928504D01*
X168355568Y-77722266D01*
X168337996Y-77697171D01*
X168225046Y-77535859D01*
X168064140Y-77374953D01*
X167903377Y-77262387D01*
X167864511Y-77218069D01*
X167850500Y-77160812D01*
X167850500Y-65707740D01*
X167852763Y-65687236D01*
X167851907Y-65660000D01*
X167850561Y-65617144D01*
X167850500Y-65613250D01*
X167850500Y-65585657D01*
X167850500Y-65585650D01*
X167849995Y-65581653D01*
X167849080Y-65570023D01*
X167847709Y-65526373D01*
X167842120Y-65507140D01*
X167838174Y-65488082D01*
X167835664Y-65468208D01*
X167819588Y-65427606D01*
X167815804Y-65416552D01*
X167803619Y-65374613D01*
X167803618Y-65374612D01*
X167803618Y-65374610D01*
X167793417Y-65357361D01*
X167784860Y-65339895D01*
X167777486Y-65321268D01*
X167751813Y-65285932D01*
X167745402Y-65276172D01*
X167723169Y-65238578D01*
X167709006Y-65224415D01*
X167696369Y-65209620D01*
X167684595Y-65193414D01*
X167684594Y-65193413D01*
X167650935Y-65165568D01*
X167642305Y-65157714D01*
X165984590Y-63499999D01*
X169274540Y-63499999D01*
X169294326Y-63688257D01*
X169352820Y-63868284D01*
X169447466Y-64032216D01*
X169574129Y-64172889D01*
X169727269Y-64284151D01*
X169900197Y-64361144D01*
X170085352Y-64400500D01*
X170194543Y-64400500D01*
X170254660Y-64416047D01*
X170299701Y-64458790D01*
X170318373Y-64518011D01*
X170305993Y-64578859D01*
X170265666Y-64626075D01*
X170195859Y-64674953D01*
X170034953Y-64835859D01*
X169904432Y-65022264D01*
X169808261Y-65228502D01*
X169749364Y-65448310D01*
X169729531Y-65674999D01*
X169749364Y-65901689D01*
X169808261Y-66121497D01*
X169904432Y-66327735D01*
X170034953Y-66514140D01*
X170195859Y-66675046D01*
X170382264Y-66805567D01*
X170382265Y-66805567D01*
X170382266Y-66805568D01*
X170588504Y-66901739D01*
X170808308Y-66960635D01*
X171035000Y-66980468D01*
X171261692Y-66960635D01*
X171481496Y-66901739D01*
X171687734Y-66805568D01*
X171874139Y-66675047D01*
X172035047Y-66514139D01*
X172165568Y-66327734D01*
X172261739Y-66121496D01*
X172320635Y-65901692D01*
X172340468Y-65675000D01*
X172320635Y-65448308D01*
X172261739Y-65228504D01*
X172165568Y-65022266D01*
X172147996Y-64997171D01*
X172035046Y-64835859D01*
X171874140Y-64674953D01*
X171687735Y-64544432D01*
X171481497Y-64448261D01*
X171261689Y-64389364D01*
X171074965Y-64373028D01*
X171016133Y-64352099D01*
X170974962Y-64305151D01*
X170961890Y-64244091D01*
X170980234Y-64184403D01*
X171025340Y-64141222D01*
X171085772Y-64125500D01*
X173127256Y-64125500D01*
X173147762Y-64127764D01*
X173150665Y-64127672D01*
X173150667Y-64127673D01*
X173217872Y-64125561D01*
X173221768Y-64125500D01*
X173249349Y-64125500D01*
X173249350Y-64125500D01*
X173253319Y-64124998D01*
X173264965Y-64124080D01*
X173308627Y-64122709D01*
X173327859Y-64117120D01*
X173346918Y-64113174D01*
X173353196Y-64112381D01*
X173366792Y-64110664D01*
X173407407Y-64094582D01*
X173418444Y-64090803D01*
X173460390Y-64078618D01*
X173477629Y-64068422D01*
X173495102Y-64059862D01*
X173513732Y-64052486D01*
X173549064Y-64026814D01*
X173558830Y-64020400D01*
X173560622Y-64019340D01*
X173596420Y-63998170D01*
X173610585Y-63984004D01*
X173625373Y-63971373D01*
X173641587Y-63959594D01*
X173669438Y-63925926D01*
X173677279Y-63917309D01*
X177087194Y-60507395D01*
X177148034Y-60474017D01*
X177217283Y-60478556D01*
X177273249Y-60519591D01*
X177298401Y-60584270D01*
X177319936Y-60830407D01*
X177360039Y-60980071D01*
X177381097Y-61058663D01*
X177480965Y-61272830D01*
X177616505Y-61466401D01*
X177783599Y-61633495D01*
X177969160Y-61763426D01*
X178008024Y-61807743D01*
X178022035Y-61865000D01*
X178008024Y-61922257D01*
X177969160Y-61966574D01*
X177811900Y-62076689D01*
X177783595Y-62096508D01*
X177616505Y-62263598D01*
X177480965Y-62457170D01*
X177381097Y-62671336D01*
X177319936Y-62899592D01*
X177299340Y-63135000D01*
X177319936Y-63370407D01*
X177355534Y-63503261D01*
X177381097Y-63598663D01*
X177480965Y-63812830D01*
X177616505Y-64006401D01*
X177783599Y-64173495D01*
X177969160Y-64303426D01*
X178008024Y-64347743D01*
X178022035Y-64405000D01*
X178008024Y-64462257D01*
X177969160Y-64506574D01*
X177811900Y-64616689D01*
X177783595Y-64636508D01*
X177616505Y-64803598D01*
X177480965Y-64997170D01*
X177381097Y-65211336D01*
X177319936Y-65439592D01*
X177299340Y-65674999D01*
X177319936Y-65910407D01*
X177332351Y-65956739D01*
X177381097Y-66138663D01*
X177480965Y-66352830D01*
X177616505Y-66546401D01*
X177783599Y-66713495D01*
X177969160Y-66843426D01*
X178008024Y-66887743D01*
X178022035Y-66945000D01*
X178008024Y-67002257D01*
X177969158Y-67046575D01*
X177811900Y-67156689D01*
X177783595Y-67176508D01*
X177616505Y-67343598D01*
X177480965Y-67537170D01*
X177381097Y-67751336D01*
X177319936Y-67979592D01*
X177299340Y-68214999D01*
X177319936Y-68450407D01*
X177335146Y-68507170D01*
X177381097Y-68678663D01*
X177480965Y-68892830D01*
X177616505Y-69086401D01*
X177783599Y-69253495D01*
X177969160Y-69383426D01*
X178008024Y-69427743D01*
X178022035Y-69485000D01*
X178008024Y-69542257D01*
X177969158Y-69586575D01*
X177811900Y-69696689D01*
X177783595Y-69716508D01*
X177616505Y-69883598D01*
X177480965Y-70077170D01*
X177381097Y-70291336D01*
X177319936Y-70519592D01*
X177299340Y-70755000D01*
X177319936Y-70990407D01*
X177335146Y-71047170D01*
X177381097Y-71218663D01*
X177480965Y-71432830D01*
X177616505Y-71626401D01*
X177783599Y-71793495D01*
X177969160Y-71923426D01*
X178008024Y-71967743D01*
X178022035Y-72025000D01*
X178008024Y-72082257D01*
X177969158Y-72126575D01*
X177811900Y-72236689D01*
X177783595Y-72256508D01*
X177616505Y-72423598D01*
X177480965Y-72617170D01*
X177381097Y-72831336D01*
X177319936Y-73059592D01*
X177299340Y-73294999D01*
X177319936Y-73530407D01*
X177335146Y-73587170D01*
X177381097Y-73758663D01*
X177480965Y-73972830D01*
X177616505Y-74166401D01*
X177783599Y-74333495D01*
X177969160Y-74463426D01*
X178008024Y-74507743D01*
X178022035Y-74565000D01*
X178008024Y-74622257D01*
X177969158Y-74666575D01*
X177811900Y-74776689D01*
X177783595Y-74796508D01*
X177616505Y-74963598D01*
X177480965Y-75157170D01*
X177381097Y-75371336D01*
X177319936Y-75599592D01*
X177299340Y-75835000D01*
X177319936Y-76070407D01*
X177335146Y-76127170D01*
X177381097Y-76298663D01*
X177480965Y-76512830D01*
X177616505Y-76706401D01*
X177783599Y-76873495D01*
X177969160Y-77003426D01*
X178008024Y-77047743D01*
X178022035Y-77105000D01*
X178008024Y-77162257D01*
X177969158Y-77206575D01*
X177811900Y-77316689D01*
X177783595Y-77336508D01*
X177616505Y-77503598D01*
X177480965Y-77697170D01*
X177381097Y-77911336D01*
X177319936Y-78139592D01*
X177299340Y-78374999D01*
X177319936Y-78610407D01*
X177364709Y-78777501D01*
X177381097Y-78838663D01*
X177480965Y-79052830D01*
X177616505Y-79246401D01*
X177783599Y-79413495D01*
X177969160Y-79543426D01*
X178008024Y-79587743D01*
X178022035Y-79645000D01*
X178008024Y-79702257D01*
X177969158Y-79746575D01*
X177792080Y-79870567D01*
X177783595Y-79876508D01*
X177616505Y-80043598D01*
X177480965Y-80237170D01*
X177381097Y-80451336D01*
X177319936Y-80679592D01*
X177299340Y-80915000D01*
X177319936Y-81150407D01*
X177335146Y-81207170D01*
X177381097Y-81378663D01*
X177480965Y-81592830D01*
X177616505Y-81786401D01*
X177783599Y-81953495D01*
X177969160Y-82083426D01*
X178008024Y-82127743D01*
X178022035Y-82185000D01*
X178008024Y-82242257D01*
X177969158Y-82286575D01*
X177811900Y-82396689D01*
X177783595Y-82416508D01*
X177616505Y-82583598D01*
X177480965Y-82777170D01*
X177381097Y-82991336D01*
X177319936Y-83219592D01*
X177299340Y-83454999D01*
X177319936Y-83690407D01*
X177359699Y-83838803D01*
X177381097Y-83918663D01*
X177480965Y-84132830D01*
X177616505Y-84326401D01*
X177783599Y-84493495D01*
X177969160Y-84623426D01*
X178008024Y-84667743D01*
X178022035Y-84725000D01*
X178008024Y-84782257D01*
X177969158Y-84826575D01*
X177811900Y-84936689D01*
X177783595Y-84956508D01*
X177616505Y-85123598D01*
X177480965Y-85317170D01*
X177381097Y-85531336D01*
X177319936Y-85759592D01*
X177299340Y-85995000D01*
X177319936Y-86230407D01*
X177360039Y-86380071D01*
X177381097Y-86458663D01*
X177480965Y-86672830D01*
X177616505Y-86866401D01*
X177783599Y-87033495D01*
X177977170Y-87169035D01*
X178191337Y-87268903D01*
X178419592Y-87330063D01*
X178655000Y-87350659D01*
X178890408Y-87330063D01*
X179118663Y-87268903D01*
X179332830Y-87169035D01*
X179526401Y-87033495D01*
X179693495Y-86866401D01*
X179829035Y-86672830D01*
X179928903Y-86458663D01*
X179990063Y-86230408D01*
X180010659Y-85995000D01*
X179990063Y-85759592D01*
X179928903Y-85531337D01*
X179829035Y-85317171D01*
X179693495Y-85123599D01*
X179526401Y-84956505D01*
X179340839Y-84826573D01*
X179301976Y-84782257D01*
X179287965Y-84725000D01*
X179301976Y-84667743D01*
X179340839Y-84623426D01*
X179526401Y-84493495D01*
X179693495Y-84326401D01*
X179829035Y-84132830D01*
X179928903Y-83918663D01*
X179990063Y-83690408D01*
X180010659Y-83455000D01*
X179990063Y-83219592D01*
X179928903Y-82991337D01*
X179829035Y-82777171D01*
X179693495Y-82583599D01*
X179526401Y-82416505D01*
X179340839Y-82286573D01*
X179301975Y-82242257D01*
X179287964Y-82185000D01*
X179301975Y-82127743D01*
X179340839Y-82083426D01*
X179526401Y-81953495D01*
X179693495Y-81786401D01*
X179829035Y-81592830D01*
X179928903Y-81378663D01*
X179990063Y-81150408D01*
X180010659Y-80915000D01*
X179990063Y-80679592D01*
X179928903Y-80451337D01*
X179829035Y-80237171D01*
X179693495Y-80043599D01*
X179526401Y-79876505D01*
X179340839Y-79746573D01*
X179301975Y-79702257D01*
X179287964Y-79645000D01*
X179301975Y-79587743D01*
X179340839Y-79543426D01*
X179526401Y-79413495D01*
X179693495Y-79246401D01*
X179829035Y-79052830D01*
X179928903Y-78838663D01*
X179990063Y-78610408D01*
X180010659Y-78375000D01*
X179990063Y-78139592D01*
X179928903Y-77911337D01*
X179829035Y-77697171D01*
X179693495Y-77503599D01*
X179526401Y-77336505D01*
X179340839Y-77206573D01*
X179301975Y-77162257D01*
X179287964Y-77105000D01*
X179301975Y-77047743D01*
X179340839Y-77003426D01*
X179526401Y-76873495D01*
X179693495Y-76706401D01*
X179829035Y-76512830D01*
X179928903Y-76298663D01*
X179990063Y-76070408D01*
X180010659Y-75835000D01*
X179990063Y-75599592D01*
X179928903Y-75371337D01*
X179829035Y-75157171D01*
X179693495Y-74963599D01*
X179526401Y-74796505D01*
X179340839Y-74666573D01*
X179301975Y-74622257D01*
X179287964Y-74565000D01*
X179301975Y-74507743D01*
X179340839Y-74463426D01*
X179526401Y-74333495D01*
X179693495Y-74166401D01*
X179829035Y-73972830D01*
X179928903Y-73758663D01*
X179990063Y-73530408D01*
X180010659Y-73295000D01*
X179990063Y-73059592D01*
X179928903Y-72831337D01*
X179829035Y-72617171D01*
X179693495Y-72423599D01*
X179526401Y-72256505D01*
X179340839Y-72126573D01*
X179301975Y-72082257D01*
X179287964Y-72025000D01*
X179301975Y-71967743D01*
X179340839Y-71923426D01*
X179526401Y-71793495D01*
X179693495Y-71626401D01*
X179829035Y-71432830D01*
X179928903Y-71218663D01*
X179990063Y-70990408D01*
X180010659Y-70755000D01*
X179990063Y-70519592D01*
X179928903Y-70291337D01*
X179829035Y-70077171D01*
X179693495Y-69883599D01*
X179526401Y-69716505D01*
X179340839Y-69586573D01*
X179301975Y-69542257D01*
X179287964Y-69485000D01*
X179301975Y-69427743D01*
X179340839Y-69383426D01*
X179526401Y-69253495D01*
X179693495Y-69086401D01*
X179829035Y-68892830D01*
X179928903Y-68678663D01*
X179990063Y-68450408D01*
X180010659Y-68215000D01*
X179990063Y-67979592D01*
X179928903Y-67751337D01*
X179829035Y-67537171D01*
X179693495Y-67343599D01*
X179526401Y-67176505D01*
X179340839Y-67046573D01*
X179301976Y-67002257D01*
X179287965Y-66945000D01*
X179301976Y-66887743D01*
X179340839Y-66843426D01*
X179526401Y-66713495D01*
X179693495Y-66546401D01*
X179829035Y-66352830D01*
X179928903Y-66138663D01*
X179990063Y-65910408D01*
X180010659Y-65675000D01*
X180005256Y-65613250D01*
X179990063Y-65439592D01*
X179985393Y-65422162D01*
X179928903Y-65211337D01*
X179829035Y-64997171D01*
X179693495Y-64803599D01*
X179526401Y-64636505D01*
X179340839Y-64506573D01*
X179301974Y-64462255D01*
X179287964Y-64404999D01*
X179301975Y-64347742D01*
X179340837Y-64303428D01*
X179526401Y-64173495D01*
X179693495Y-64006401D01*
X179829035Y-63812830D01*
X179928903Y-63598663D01*
X179990063Y-63370408D01*
X180010659Y-63135000D01*
X179990063Y-62899592D01*
X179928903Y-62671337D01*
X179829035Y-62457171D01*
X179693495Y-62263599D01*
X179526401Y-62096505D01*
X179340839Y-61966573D01*
X179301974Y-61922255D01*
X179287964Y-61864999D01*
X179301975Y-61807742D01*
X179340837Y-61763428D01*
X179526401Y-61633495D01*
X179693495Y-61466401D01*
X179829035Y-61272830D01*
X179928903Y-61058663D01*
X179990063Y-60830408D01*
X180010659Y-60595000D01*
X179990063Y-60359592D01*
X179928903Y-60131337D01*
X179829035Y-59917171D01*
X179693495Y-59723599D01*
X179571569Y-59601673D01*
X179540273Y-59548927D01*
X179538084Y-59487634D01*
X179565537Y-59432789D01*
X179615916Y-59397810D01*
X179747331Y-59348796D01*
X179862546Y-59262546D01*
X179948796Y-59147331D01*
X179999091Y-59012483D01*
X180005500Y-58952873D01*
X180005499Y-57157128D01*
X179999091Y-57097517D01*
X179948796Y-56962669D01*
X179862546Y-56847454D01*
X179747331Y-56761204D01*
X179612483Y-56710909D01*
X179552873Y-56704500D01*
X179552869Y-56704500D01*
X177757130Y-56704500D01*
X177697515Y-56710909D01*
X177562669Y-56761204D01*
X177447454Y-56847454D01*
X177361204Y-56962668D01*
X177310909Y-57097516D01*
X177304500Y-57157131D01*
X177304500Y-58469547D01*
X177295061Y-58517000D01*
X177268181Y-58557228D01*
X172987228Y-62838181D01*
X172947000Y-62865061D01*
X172899547Y-62874500D01*
X170883747Y-62874500D01*
X170833312Y-62863780D01*
X170791598Y-62833473D01*
X170785871Y-62827112D01*
X170632730Y-62715849D01*
X170632729Y-62715848D01*
X170632727Y-62715847D01*
X170459802Y-62638855D01*
X170274648Y-62599500D01*
X170274646Y-62599500D01*
X170085354Y-62599500D01*
X170085352Y-62599500D01*
X169900197Y-62638855D01*
X169727269Y-62715848D01*
X169574129Y-62827110D01*
X169447466Y-62967783D01*
X169352820Y-63131715D01*
X169294326Y-63311742D01*
X169274540Y-63499999D01*
X165984590Y-63499999D01*
X164443617Y-61959026D01*
X165229526Y-61959026D01*
X165302515Y-62010133D01*
X165508673Y-62106266D01*
X165728397Y-62165141D01*
X165955000Y-62184966D01*
X166181602Y-62165141D01*
X166401326Y-62106266D01*
X166607480Y-62010134D01*
X166680472Y-61959025D01*
X165955001Y-61233553D01*
X165955000Y-61233553D01*
X165229526Y-61959025D01*
X165229526Y-61959026D01*
X164443617Y-61959026D01*
X163498960Y-61014369D01*
X163474720Y-60980071D01*
X163463321Y-60939655D01*
X163457051Y-60879999D01*
X164650033Y-60879999D01*
X164669858Y-61106602D01*
X164728733Y-61326326D01*
X164824866Y-61532484D01*
X164875972Y-61605471D01*
X164875974Y-61605472D01*
X165601446Y-60880001D01*
X166308553Y-60880001D01*
X167034025Y-61605472D01*
X167085134Y-61532480D01*
X167181266Y-61326326D01*
X167240141Y-61106602D01*
X167259966Y-60879999D01*
X167240141Y-60653397D01*
X167181266Y-60433673D01*
X167106282Y-60272869D01*
X169634500Y-60272869D01*
X169640909Y-60332484D01*
X169644118Y-60341088D01*
X169691204Y-60467331D01*
X169777454Y-60582546D01*
X169892669Y-60668796D01*
X170027517Y-60719091D01*
X170087127Y-60725500D01*
X171982872Y-60725499D01*
X172042483Y-60719091D01*
X172177331Y-60668796D01*
X172292546Y-60582546D01*
X172378796Y-60467331D01*
X172407455Y-60390490D01*
X172443405Y-60339279D01*
X172499787Y-60312140D01*
X172562242Y-60315988D01*
X172614864Y-60349841D01*
X172623216Y-60358913D01*
X172806374Y-60501470D01*
X173010497Y-60611936D01*
X173043486Y-60623261D01*
X173230015Y-60687297D01*
X173230017Y-60687297D01*
X173230019Y-60687298D01*
X173458951Y-60725500D01*
X173691048Y-60725500D01*
X173691049Y-60725500D01*
X173919981Y-60687298D01*
X174139503Y-60611936D01*
X174343626Y-60501470D01*
X174526784Y-60358913D01*
X174683979Y-60188153D01*
X174810924Y-59993849D01*
X174904157Y-59781300D01*
X174961134Y-59556305D01*
X174980300Y-59325000D01*
X174961134Y-59093695D01*
X174904157Y-58868700D01*
X174810924Y-58656151D01*
X174683979Y-58461847D01*
X174526784Y-58291087D01*
X174343626Y-58148530D01*
X174139503Y-58038064D01*
X174139499Y-58038062D01*
X174139498Y-58038062D01*
X173919984Y-57962702D01*
X173729456Y-57930909D01*
X173691049Y-57924500D01*
X173458951Y-57924500D01*
X173438618Y-57927893D01*
X173230015Y-57962702D01*
X173010501Y-58038062D01*
X173010497Y-58038063D01*
X173010497Y-58038064D01*
X172950561Y-58070500D01*
X172806372Y-58148531D01*
X172623213Y-58291089D01*
X172614863Y-58300160D01*
X172562239Y-58334012D01*
X172499785Y-58337859D01*
X172443405Y-58310720D01*
X172407455Y-58259509D01*
X172378796Y-58182669D01*
X172292546Y-58067454D01*
X172177331Y-57981204D01*
X172042483Y-57930909D01*
X171982873Y-57924500D01*
X171982869Y-57924500D01*
X170087130Y-57924500D01*
X170027515Y-57930909D01*
X169892669Y-57981204D01*
X169777454Y-58067454D01*
X169691204Y-58182668D01*
X169640909Y-58317516D01*
X169634500Y-58377130D01*
X169634500Y-60272869D01*
X167106282Y-60272869D01*
X167085133Y-60227515D01*
X167034025Y-60154526D01*
X166308553Y-60880000D01*
X166308553Y-60880001D01*
X165601446Y-60880001D01*
X165601446Y-60880000D01*
X164875973Y-60154526D01*
X164875973Y-60154527D01*
X164824865Y-60227516D01*
X164728733Y-60433672D01*
X164669858Y-60653397D01*
X164650033Y-60879999D01*
X163457051Y-60879999D01*
X163445674Y-60771744D01*
X163407557Y-60654432D01*
X163387179Y-60591715D01*
X163292533Y-60427783D01*
X163165870Y-60287110D01*
X163012730Y-60175848D01*
X162839802Y-60098855D01*
X162654648Y-60059500D01*
X162654646Y-60059500D01*
X162465354Y-60059500D01*
X162465352Y-60059500D01*
X162280197Y-60098855D01*
X162107269Y-60175848D01*
X161954129Y-60287110D01*
X161827466Y-60427783D01*
X161732820Y-60591715D01*
X161674326Y-60771742D01*
X161654540Y-60960000D01*
X160564187Y-60960000D01*
X160454140Y-60849953D01*
X160267736Y-60719433D01*
X160267003Y-60719091D01*
X160209132Y-60692105D01*
X160156958Y-60646348D01*
X160137539Y-60579723D01*
X160156959Y-60513098D01*
X160209135Y-60467342D01*
X160267479Y-60440135D01*
X160453819Y-60309658D01*
X160614658Y-60148819D01*
X160745134Y-59962480D01*
X160820447Y-59800973D01*
X165229526Y-59800973D01*
X165955000Y-60526446D01*
X165955001Y-60526446D01*
X166680472Y-59800974D01*
X166680471Y-59800972D01*
X166607484Y-59749866D01*
X166401326Y-59653733D01*
X166181602Y-59594858D01*
X165955000Y-59575033D01*
X165728397Y-59594858D01*
X165508672Y-59653733D01*
X165302516Y-59749865D01*
X165229527Y-59800973D01*
X165229526Y-59800973D01*
X160820447Y-59800973D01*
X160841266Y-59756326D01*
X160893872Y-59560000D01*
X158336128Y-59560000D01*
X158388733Y-59756326D01*
X158484865Y-59962480D01*
X158615341Y-60148819D01*
X158776180Y-60309658D01*
X158962519Y-60440134D01*
X159020865Y-60467342D01*
X159073040Y-60513099D01*
X159092460Y-60579723D01*
X159073041Y-60646348D01*
X159020866Y-60692105D01*
X158962267Y-60719430D01*
X158775859Y-60849953D01*
X158614953Y-61010859D01*
X158484432Y-61197264D01*
X158388261Y-61403502D01*
X158329364Y-61623310D01*
X158309531Y-61850000D01*
X158329364Y-62076689D01*
X158388261Y-62296497D01*
X158484432Y-62502735D01*
X158614953Y-62689140D01*
X158775859Y-62850046D01*
X158891425Y-62930965D01*
X158962266Y-62980568D01*
X159020273Y-63007617D01*
X159072449Y-63053373D01*
X159091869Y-63119997D01*
X159072451Y-63186622D01*
X159020276Y-63232380D01*
X158962266Y-63259431D01*
X158775859Y-63389953D01*
X158614953Y-63550859D01*
X158484432Y-63737264D01*
X158388261Y-63943502D01*
X158329364Y-64163310D01*
X158309531Y-64390000D01*
X158329364Y-64616689D01*
X158388261Y-64836497D01*
X158484432Y-65042735D01*
X158614953Y-65229140D01*
X158775859Y-65390046D01*
X158846619Y-65439592D01*
X158962266Y-65520568D01*
X159020275Y-65547618D01*
X159072450Y-65593375D01*
X159091869Y-65660000D01*
X159072450Y-65726625D01*
X159020275Y-65772382D01*
X158962263Y-65799433D01*
X158775859Y-65929953D01*
X158614953Y-66090859D01*
X158484432Y-66277264D01*
X158388261Y-66483502D01*
X158329364Y-66703310D01*
X158309531Y-66930000D01*
X158329364Y-67156689D01*
X158388261Y-67376497D01*
X158484432Y-67582735D01*
X158614953Y-67769140D01*
X158775859Y-67930046D01*
X158846619Y-67979592D01*
X158962266Y-68060568D01*
X159020275Y-68087618D01*
X159072450Y-68133375D01*
X159091869Y-68200000D01*
X159072450Y-68266625D01*
X159020275Y-68312382D01*
X158962263Y-68339433D01*
X158775859Y-68469953D01*
X158614953Y-68630859D01*
X158484432Y-68817264D01*
X158388261Y-69023502D01*
X158329364Y-69243310D01*
X158309531Y-69470000D01*
X158329364Y-69696689D01*
X158388261Y-69916497D01*
X158484432Y-70122735D01*
X158614953Y-70309140D01*
X158775859Y-70470046D01*
X158846619Y-70519592D01*
X158962266Y-70600568D01*
X159020275Y-70627618D01*
X159072450Y-70673375D01*
X159091869Y-70740000D01*
X159072450Y-70806625D01*
X159020275Y-70852382D01*
X158962263Y-70879433D01*
X158775859Y-71009953D01*
X158614953Y-71170859D01*
X158484432Y-71357264D01*
X158388261Y-71563502D01*
X158329364Y-71783310D01*
X158309531Y-72010000D01*
X158329364Y-72236689D01*
X158388261Y-72456497D01*
X158484432Y-72662735D01*
X158614953Y-72849140D01*
X158775859Y-73010046D01*
X158846619Y-73059592D01*
X158962266Y-73140568D01*
X159020273Y-73167617D01*
X159072449Y-73213373D01*
X159091869Y-73279997D01*
X159072451Y-73346622D01*
X159020276Y-73392380D01*
X158962266Y-73419431D01*
X158775859Y-73549953D01*
X158614953Y-73710859D01*
X158484432Y-73897264D01*
X158388261Y-74103502D01*
X158329364Y-74323310D01*
X158309531Y-74550000D01*
X158329364Y-74776689D01*
X158388261Y-74996497D01*
X158484432Y-75202735D01*
X158614953Y-75389140D01*
X158775859Y-75550046D01*
X158962263Y-75680566D01*
X158962266Y-75680568D01*
X159019683Y-75707342D01*
X159020275Y-75707618D01*
X159072450Y-75753375D01*
X159091869Y-75820000D01*
X159072450Y-75886625D01*
X159020275Y-75932382D01*
X158962263Y-75959433D01*
X158775859Y-76089953D01*
X158614953Y-76250859D01*
X158484432Y-76437264D01*
X158388261Y-76643502D01*
X158329364Y-76863310D01*
X158309531Y-77090000D01*
X153300468Y-77090000D01*
X153280635Y-76863308D01*
X153221739Y-76643504D01*
X153125568Y-76437266D01*
X153058398Y-76341337D01*
X152995046Y-76250859D01*
X152834140Y-76089953D01*
X152647736Y-75959433D01*
X152589725Y-75932382D01*
X152589132Y-75932105D01*
X152536958Y-75886348D01*
X152517539Y-75819723D01*
X152536959Y-75753098D01*
X152589135Y-75707342D01*
X152647479Y-75680135D01*
X152833819Y-75549658D01*
X152994658Y-75388819D01*
X153125134Y-75202480D01*
X153221266Y-74996326D01*
X153273872Y-74800000D01*
X150716128Y-74800000D01*
X150768733Y-74996326D01*
X150864865Y-75202480D01*
X150995341Y-75388819D01*
X151156180Y-75549658D01*
X151342519Y-75680134D01*
X151400865Y-75707342D01*
X151453040Y-75753099D01*
X151472460Y-75819723D01*
X151453041Y-75886348D01*
X151400866Y-75932105D01*
X151342267Y-75959430D01*
X151155859Y-76089953D01*
X150994953Y-76250859D01*
X150864432Y-76437264D01*
X150768261Y-76643502D01*
X150709364Y-76863310D01*
X150689531Y-77090000D01*
X150709364Y-77316689D01*
X150768261Y-77536497D01*
X150864432Y-77742735D01*
X150994953Y-77929140D01*
X151155859Y-78090046D01*
X151226619Y-78139592D01*
X151342266Y-78220568D01*
X151400275Y-78247618D01*
X151452450Y-78293375D01*
X151471869Y-78360000D01*
X151452450Y-78426625D01*
X151400275Y-78472382D01*
X151342263Y-78499433D01*
X151155859Y-78629953D01*
X150994953Y-78790859D01*
X150864432Y-78977264D01*
X150768261Y-79183502D01*
X150709364Y-79403310D01*
X150689531Y-79630000D01*
X150709364Y-79856689D01*
X150768261Y-80076497D01*
X150864432Y-80282735D01*
X150994953Y-80469140D01*
X151155859Y-80630046D01*
X151342263Y-80760566D01*
X151342266Y-80760568D01*
X151400275Y-80787618D01*
X151452450Y-80833375D01*
X151471869Y-80900000D01*
X151452450Y-80966625D01*
X151400275Y-81012382D01*
X151342263Y-81039433D01*
X151155859Y-81169953D01*
X150994953Y-81330859D01*
X150864432Y-81517264D01*
X150768261Y-81723502D01*
X150709364Y-81943310D01*
X150689531Y-82170000D01*
X150709364Y-82396689D01*
X150768261Y-82616497D01*
X150864432Y-82822735D01*
X150994953Y-83009140D01*
X151155859Y-83170046D01*
X151271425Y-83250965D01*
X151342266Y-83300568D01*
X151400273Y-83327617D01*
X151452449Y-83373373D01*
X151471869Y-83439997D01*
X151452451Y-83506622D01*
X151400276Y-83552380D01*
X151342266Y-83579431D01*
X151155859Y-83709953D01*
X150994953Y-83870859D01*
X150864432Y-84057264D01*
X150768261Y-84263502D01*
X150709364Y-84483310D01*
X150689531Y-84710000D01*
X150709364Y-84936689D01*
X150768261Y-85156497D01*
X150864432Y-85362735D01*
X150994953Y-85549140D01*
X151155859Y-85710046D01*
X151306422Y-85815470D01*
X151342266Y-85840568D01*
X151400275Y-85867618D01*
X151452450Y-85913375D01*
X151471869Y-85980000D01*
X151452450Y-86046625D01*
X151400275Y-86092381D01*
X151379576Y-86102033D01*
X151342263Y-86119433D01*
X151155859Y-86249953D01*
X150994950Y-86410862D01*
X150990285Y-86417525D01*
X150945390Y-86456687D01*
X150887412Y-86470391D01*
X150829734Y-86455473D01*
X150785670Y-86415378D01*
X150765392Y-86359361D01*
X150745674Y-86171744D01*
X150692293Y-86007454D01*
X150687179Y-85991715D01*
X150592533Y-85827783D01*
X150465870Y-85687110D01*
X150312730Y-85575848D01*
X150139802Y-85498855D01*
X149954648Y-85459500D01*
X149954646Y-85459500D01*
X149765354Y-85459500D01*
X149765352Y-85459500D01*
X149580197Y-85498855D01*
X149407269Y-85575848D01*
X149254129Y-85687110D01*
X149127466Y-85827783D01*
X149032820Y-85991715D01*
X148974326Y-86171742D01*
X148974325Y-86171744D01*
X148974326Y-86171744D01*
X148963578Y-86274012D01*
X148956679Y-86339650D01*
X148945279Y-86380071D01*
X148921039Y-86414369D01*
X148367228Y-86968181D01*
X148327000Y-86995061D01*
X148279547Y-87004500D01*
X145483747Y-87004500D01*
X145433312Y-86993780D01*
X145391598Y-86963473D01*
X145385871Y-86957112D01*
X145232730Y-86845849D01*
X145232729Y-86845848D01*
X145232727Y-86845847D01*
X145059802Y-86768855D01*
X144874648Y-86729500D01*
X144874646Y-86729500D01*
X144685354Y-86729500D01*
X144685352Y-86729500D01*
X144500197Y-86768855D01*
X144327269Y-86845848D01*
X144174129Y-86957110D01*
X144047466Y-87097783D01*
X143952820Y-87261715D01*
X143894326Y-87441742D01*
X143874540Y-87630000D01*
X141907278Y-87630000D01*
X141941134Y-87496305D01*
X141960300Y-87265000D01*
X141941134Y-87033695D01*
X141884157Y-86808700D01*
X141790924Y-86596151D01*
X141663979Y-86401847D01*
X141506784Y-86231087D01*
X141323626Y-86088530D01*
X141119503Y-85978064D01*
X141119499Y-85978062D01*
X141119498Y-85978062D01*
X140899984Y-85902702D01*
X140709456Y-85870909D01*
X140671049Y-85864500D01*
X140438951Y-85864500D01*
X140420266Y-85867618D01*
X140210015Y-85902702D01*
X139990501Y-85978062D01*
X139990497Y-85978063D01*
X139990497Y-85978064D01*
X139936189Y-86007454D01*
X139786372Y-86088531D01*
X139603213Y-86231089D01*
X139594863Y-86240160D01*
X139542239Y-86274012D01*
X139479785Y-86277859D01*
X139423405Y-86250720D01*
X139387455Y-86199509D01*
X139358796Y-86122669D01*
X139272546Y-86007454D01*
X139157331Y-85921204D01*
X139157330Y-85921203D01*
X139157328Y-85921202D01*
X139130476Y-85911187D01*
X139081167Y-85877428D01*
X139053375Y-85824526D01*
X139053553Y-85764768D01*
X139081661Y-85712033D01*
X139087318Y-85705751D01*
X139162533Y-85622216D01*
X139257179Y-85458284D01*
X139315674Y-85278256D01*
X139335460Y-85090000D01*
X139315674Y-84901744D01*
X139276850Y-84782257D01*
X139257179Y-84721715D01*
X139162533Y-84557783D01*
X139035870Y-84417110D01*
X138882730Y-84305848D01*
X138709802Y-84228855D01*
X138524648Y-84189500D01*
X138524646Y-84189500D01*
X138465453Y-84189500D01*
X138418000Y-84180061D01*
X138377772Y-84153181D01*
X138265802Y-84041211D01*
X138252906Y-84025113D01*
X138201775Y-83977098D01*
X138198978Y-83974387D01*
X138179470Y-83954879D01*
X138176290Y-83952412D01*
X138167424Y-83944839D01*
X138135582Y-83914938D01*
X138118024Y-83905285D01*
X138101764Y-83894604D01*
X138085936Y-83882327D01*
X138045851Y-83864980D01*
X138035361Y-83859841D01*
X137997091Y-83838802D01*
X137977691Y-83833821D01*
X137959284Y-83827519D01*
X137940897Y-83819562D01*
X137897758Y-83812729D01*
X137886324Y-83810361D01*
X137844019Y-83799500D01*
X137823984Y-83799500D01*
X137804586Y-83797973D01*
X137797162Y-83796797D01*
X137784805Y-83794840D01*
X137784804Y-83794840D01*
X137751751Y-83797964D01*
X137741325Y-83798950D01*
X137729656Y-83799500D01*
X134210226Y-83799500D01*
X134152969Y-83785489D01*
X134108651Y-83746623D01*
X133973495Y-83553599D01*
X133874895Y-83454999D01*
X145599531Y-83454999D01*
X145619364Y-83681689D01*
X145678261Y-83901497D01*
X145774432Y-84107735D01*
X145904953Y-84294140D01*
X146065859Y-84455046D01*
X146252264Y-84585567D01*
X146252265Y-84585567D01*
X146252266Y-84585568D01*
X146458504Y-84681739D01*
X146678308Y-84740635D01*
X146829435Y-84753856D01*
X146904999Y-84760468D01*
X146904999Y-84760467D01*
X146905000Y-84760468D01*
X147131692Y-84740635D01*
X147351496Y-84681739D01*
X147557734Y-84585568D01*
X147744139Y-84455047D01*
X147905047Y-84294139D01*
X148035568Y-84107734D01*
X148131739Y-83901496D01*
X148190635Y-83681692D01*
X148210468Y-83455000D01*
X148190635Y-83228308D01*
X148131739Y-83008504D01*
X148035568Y-82802266D01*
X148017996Y-82777171D01*
X147905046Y-82615859D01*
X147744140Y-82454953D01*
X147557735Y-82324432D01*
X147351497Y-82228261D01*
X147131689Y-82169364D01*
X146905000Y-82149531D01*
X146678310Y-82169364D01*
X146458502Y-82228261D01*
X146252264Y-82324432D01*
X146065859Y-82454953D01*
X145904953Y-82615859D01*
X145774432Y-82802264D01*
X145678261Y-83008502D01*
X145619364Y-83228310D01*
X145599531Y-83454999D01*
X133874895Y-83454999D01*
X133806401Y-83386505D01*
X133620839Y-83256573D01*
X133581974Y-83212255D01*
X133567964Y-83154999D01*
X133581975Y-83097742D01*
X133620837Y-83053428D01*
X133806401Y-82923495D01*
X133973495Y-82756401D01*
X134109035Y-82562830D01*
X134208903Y-82348663D01*
X134270063Y-82120408D01*
X134290659Y-81885000D01*
X134270063Y-81649592D01*
X134208903Y-81421337D01*
X134109035Y-81207171D01*
X133973495Y-81013599D01*
X133806401Y-80846505D01*
X133620839Y-80716573D01*
X133581975Y-80672257D01*
X133567964Y-80615000D01*
X133581975Y-80557743D01*
X133620839Y-80513426D01*
X133806401Y-80383495D01*
X133973495Y-80216401D01*
X134109035Y-80022830D01*
X134208903Y-79808663D01*
X134270063Y-79580408D01*
X134290659Y-79345000D01*
X134270063Y-79109592D01*
X134208903Y-78881337D01*
X134109035Y-78667171D01*
X133973495Y-78473599D01*
X133806401Y-78306505D01*
X133620839Y-78176573D01*
X133581975Y-78132257D01*
X133567964Y-78075000D01*
X133581975Y-78017743D01*
X133620839Y-77973426D01*
X133806401Y-77843495D01*
X133973495Y-77676401D01*
X134109035Y-77482830D01*
X134208903Y-77268663D01*
X134270063Y-77040408D01*
X134281120Y-76914026D01*
X146179526Y-76914026D01*
X146252515Y-76965133D01*
X146458673Y-77061266D01*
X146678397Y-77120141D01*
X146904999Y-77139966D01*
X147131602Y-77120141D01*
X147351326Y-77061266D01*
X147557480Y-76965134D01*
X147630472Y-76914025D01*
X146905001Y-76188553D01*
X146905000Y-76188553D01*
X146179526Y-76914025D01*
X146179526Y-76914026D01*
X134281120Y-76914026D01*
X134290659Y-76805000D01*
X134270063Y-76569592D01*
X134208903Y-76341337D01*
X134109035Y-76127171D01*
X133973495Y-75933599D01*
X133874896Y-75835000D01*
X145600033Y-75835000D01*
X145619858Y-76061602D01*
X145678733Y-76281326D01*
X145774866Y-76487484D01*
X145825972Y-76560471D01*
X145825974Y-76560472D01*
X146551446Y-75835001D01*
X147258553Y-75835001D01*
X147984025Y-76560472D01*
X148035134Y-76487480D01*
X148131266Y-76281326D01*
X148190141Y-76061602D01*
X148209966Y-75835000D01*
X148190141Y-75608397D01*
X148131266Y-75388673D01*
X148035133Y-75182515D01*
X147984025Y-75109526D01*
X147258553Y-75835000D01*
X147258553Y-75835001D01*
X146551446Y-75835001D01*
X146551446Y-75835000D01*
X145825973Y-75109526D01*
X145825973Y-75109527D01*
X145774865Y-75182516D01*
X145678733Y-75388672D01*
X145619858Y-75608397D01*
X145600033Y-75835000D01*
X133874896Y-75835000D01*
X133806401Y-75766505D01*
X133620839Y-75636573D01*
X133581974Y-75592255D01*
X133567964Y-75534999D01*
X133581975Y-75477742D01*
X133620837Y-75433428D01*
X133806401Y-75303495D01*
X133973495Y-75136401D01*
X134109035Y-74942830D01*
X134196168Y-74755973D01*
X146179526Y-74755973D01*
X146905000Y-75481446D01*
X146905001Y-75481446D01*
X147630472Y-74755974D01*
X147630471Y-74755972D01*
X147557484Y-74704866D01*
X147351326Y-74608733D01*
X147131602Y-74549858D01*
X146905000Y-74530033D01*
X146678397Y-74549858D01*
X146458672Y-74608733D01*
X146252516Y-74704865D01*
X146179527Y-74755973D01*
X146179526Y-74755973D01*
X134196168Y-74755973D01*
X134208903Y-74728663D01*
X134270063Y-74500408D01*
X134290659Y-74265000D01*
X134270063Y-74029592D01*
X134208903Y-73801337D01*
X134109035Y-73587171D01*
X133973495Y-73393599D01*
X133806401Y-73226505D01*
X133620839Y-73096573D01*
X133581975Y-73052257D01*
X133567964Y-72995000D01*
X133581975Y-72937743D01*
X133620839Y-72893426D01*
X133806401Y-72763495D01*
X133973495Y-72596401D01*
X134109035Y-72402830D01*
X134115018Y-72390000D01*
X142604540Y-72390000D01*
X142624326Y-72578257D01*
X142682820Y-72758284D01*
X142777466Y-72922216D01*
X142904129Y-73062889D01*
X143057269Y-73174151D01*
X143230197Y-73251144D01*
X143415352Y-73290500D01*
X143415354Y-73290500D01*
X143604646Y-73290500D01*
X143604648Y-73290500D01*
X143728083Y-73264262D01*
X143789803Y-73251144D01*
X143962730Y-73174151D01*
X144115871Y-73062888D01*
X144242533Y-72922216D01*
X144337179Y-72758284D01*
X144395674Y-72578256D01*
X144415460Y-72390000D01*
X144395674Y-72201744D01*
X144356850Y-72082257D01*
X144337179Y-72021715D01*
X144242535Y-71857786D01*
X144222060Y-71835047D01*
X144167347Y-71774282D01*
X144143736Y-71735751D01*
X144135500Y-71691313D01*
X144135500Y-70835000D01*
X145599531Y-70835000D01*
X145619364Y-71061689D01*
X145678261Y-71281497D01*
X145774432Y-71487735D01*
X145904953Y-71674140D01*
X146065859Y-71835046D01*
X146252264Y-71965567D01*
X146252265Y-71965567D01*
X146252266Y-71965568D01*
X146458504Y-72061739D01*
X146678308Y-72120635D01*
X146905000Y-72140468D01*
X147131692Y-72120635D01*
X147351496Y-72061739D01*
X147462450Y-72010000D01*
X150689531Y-72010000D01*
X150709364Y-72236689D01*
X150768261Y-72456497D01*
X150864432Y-72662735D01*
X150994953Y-72849140D01*
X151155859Y-73010046D01*
X151342264Y-73140567D01*
X151342265Y-73140567D01*
X151342266Y-73140568D01*
X151400865Y-73167893D01*
X151453040Y-73213650D01*
X151472460Y-73280274D01*
X151453041Y-73346899D01*
X151400866Y-73392656D01*
X151342522Y-73419863D01*
X151156180Y-73550341D01*
X150995341Y-73711180D01*
X150864865Y-73897519D01*
X150768733Y-74103673D01*
X150716128Y-74299999D01*
X150716128Y-74300000D01*
X153273872Y-74300000D01*
X153273871Y-74299999D01*
X153221266Y-74103673D01*
X153125134Y-73897519D01*
X152994658Y-73711180D01*
X152833819Y-73550341D01*
X152647482Y-73419866D01*
X152589133Y-73392657D01*
X152536958Y-73346899D01*
X152517539Y-73280274D01*
X152536959Y-73213649D01*
X152589134Y-73167893D01*
X152647734Y-73140568D01*
X152834139Y-73010047D01*
X152995047Y-72849139D01*
X153125568Y-72662734D01*
X153221739Y-72456496D01*
X153280635Y-72236692D01*
X153300468Y-72010000D01*
X153280635Y-71783308D01*
X153221739Y-71563504D01*
X153125568Y-71357266D01*
X153072514Y-71281497D01*
X152995046Y-71170859D01*
X152834140Y-71009953D01*
X152647733Y-70879431D01*
X152589725Y-70852382D01*
X152537549Y-70806625D01*
X152518129Y-70740000D01*
X152537549Y-70673375D01*
X152589725Y-70627618D01*
X152647734Y-70600568D01*
X152834139Y-70470047D01*
X152995047Y-70309139D01*
X153125568Y-70122734D01*
X153221739Y-69916496D01*
X153280635Y-69696692D01*
X153300468Y-69470000D01*
X153280635Y-69243308D01*
X153221739Y-69023504D01*
X153125568Y-68817266D01*
X153058398Y-68721337D01*
X152995046Y-68630859D01*
X152834140Y-68469953D01*
X152647733Y-68339431D01*
X152589725Y-68312382D01*
X152537549Y-68266625D01*
X152518129Y-68200000D01*
X152537549Y-68133375D01*
X152589725Y-68087618D01*
X152647734Y-68060568D01*
X152834139Y-67930047D01*
X152995047Y-67769139D01*
X153125568Y-67582734D01*
X153221739Y-67376496D01*
X153280635Y-67156692D01*
X153300468Y-66930000D01*
X153280635Y-66703308D01*
X153221739Y-66483504D01*
X153125568Y-66277266D01*
X153058398Y-66181337D01*
X152995046Y-66090859D01*
X152834140Y-65929953D01*
X152647733Y-65799431D01*
X152589725Y-65772382D01*
X152537549Y-65726625D01*
X152518129Y-65660000D01*
X152537549Y-65593375D01*
X152589725Y-65547618D01*
X152647734Y-65520568D01*
X152834139Y-65390047D01*
X152995047Y-65229139D01*
X153125568Y-65042734D01*
X153221739Y-64836496D01*
X153280635Y-64616692D01*
X153300468Y-64390000D01*
X153280635Y-64163308D01*
X153221739Y-63943504D01*
X153125568Y-63737266D01*
X153120447Y-63729953D01*
X152995046Y-63550859D01*
X152834140Y-63389953D01*
X152647733Y-63259431D01*
X152589725Y-63232382D01*
X152537549Y-63186625D01*
X152518129Y-63120000D01*
X152537549Y-63053375D01*
X152589725Y-63007618D01*
X152647734Y-62980568D01*
X152834139Y-62850047D01*
X152995047Y-62689139D01*
X153125568Y-62502734D01*
X153221739Y-62296496D01*
X153280635Y-62076692D01*
X153300468Y-61850000D01*
X153280635Y-61623308D01*
X153221739Y-61403504D01*
X153125568Y-61197266D01*
X153093154Y-61150974D01*
X152995046Y-61010859D01*
X152834140Y-60849953D01*
X152647733Y-60719431D01*
X152606727Y-60700310D01*
X152589724Y-60692381D01*
X152537549Y-60646625D01*
X152518129Y-60580000D01*
X152537549Y-60513375D01*
X152589725Y-60467618D01*
X152647734Y-60440568D01*
X152834139Y-60310047D01*
X152995047Y-60149139D01*
X153125568Y-59962734D01*
X153221739Y-59756496D01*
X153280635Y-59536692D01*
X153300468Y-59310000D01*
X153280635Y-59083308D01*
X153221739Y-58863504D01*
X153125568Y-58657266D01*
X153124787Y-58656151D01*
X152995046Y-58470859D01*
X152834140Y-58309953D01*
X152809537Y-58292726D01*
X152770399Y-58247884D01*
X152756666Y-58189970D01*
X152771500Y-58132328D01*
X152811485Y-58088239D01*
X152867406Y-58067861D01*
X152902483Y-58064091D01*
X153037331Y-58013796D01*
X153152546Y-57927546D01*
X153238796Y-57812331D01*
X153289091Y-57677483D01*
X153295500Y-57617873D01*
X153295499Y-56770000D01*
X158309531Y-56770000D01*
X158329364Y-56996689D01*
X158388261Y-57216497D01*
X158484432Y-57422735D01*
X158614953Y-57609140D01*
X158775859Y-57770046D01*
X158962264Y-57900567D01*
X158962265Y-57900567D01*
X158962266Y-57900568D01*
X159020865Y-57927893D01*
X159073040Y-57973650D01*
X159092460Y-58040274D01*
X159073041Y-58106899D01*
X159020866Y-58152656D01*
X158962522Y-58179863D01*
X158776180Y-58310341D01*
X158615341Y-58471180D01*
X158484865Y-58657519D01*
X158388733Y-58863673D01*
X158336128Y-59059999D01*
X158336128Y-59060000D01*
X160893872Y-59060000D01*
X160893871Y-59059999D01*
X160841266Y-58863673D01*
X160745134Y-58657519D01*
X160614658Y-58471180D01*
X160453819Y-58310341D01*
X160267482Y-58179866D01*
X160209133Y-58152657D01*
X160156958Y-58106899D01*
X160137539Y-58040274D01*
X160156959Y-57973649D01*
X160209134Y-57927893D01*
X160267734Y-57900568D01*
X160454139Y-57770047D01*
X160615047Y-57609139D01*
X160745568Y-57422734D01*
X160841739Y-57216496D01*
X160900635Y-56996692D01*
X160920468Y-56770000D01*
X160900635Y-56543308D01*
X160841739Y-56323504D01*
X160745568Y-56117266D01*
X160705138Y-56059526D01*
X160615046Y-55930859D01*
X160564187Y-55880000D01*
X164649531Y-55880000D01*
X164669364Y-56106689D01*
X164728261Y-56326497D01*
X164824432Y-56532735D01*
X164954953Y-56719140D01*
X165115859Y-56880046D01*
X165302264Y-57010567D01*
X165302265Y-57010567D01*
X165302266Y-57010568D01*
X165508504Y-57106739D01*
X165728308Y-57165635D01*
X165955000Y-57185468D01*
X166181692Y-57165635D01*
X166401496Y-57106739D01*
X166607734Y-57010568D01*
X166794139Y-56880047D01*
X166955047Y-56719139D01*
X167085568Y-56532734D01*
X167181739Y-56326496D01*
X167240635Y-56106692D01*
X167260468Y-55880000D01*
X167240635Y-55653308D01*
X167181739Y-55433504D01*
X167085568Y-55227266D01*
X166955047Y-55040861D01*
X166955046Y-55040859D01*
X166794140Y-54879953D01*
X166607735Y-54749432D01*
X166401497Y-54653261D01*
X166181689Y-54594364D01*
X165955000Y-54574531D01*
X165728310Y-54594364D01*
X165508502Y-54653261D01*
X165302264Y-54749432D01*
X165115859Y-54879953D01*
X164954953Y-55040859D01*
X164824432Y-55227264D01*
X164728261Y-55433502D01*
X164669364Y-55653310D01*
X164649531Y-55880000D01*
X160564187Y-55880000D01*
X160454140Y-55769953D01*
X160267735Y-55639432D01*
X160061497Y-55543261D01*
X159841689Y-55484364D01*
X159615000Y-55464531D01*
X159388310Y-55484364D01*
X159168502Y-55543261D01*
X158962264Y-55639432D01*
X158775859Y-55769953D01*
X158614953Y-55930859D01*
X158484432Y-56117264D01*
X158388261Y-56323502D01*
X158329364Y-56543310D01*
X158309531Y-56770000D01*
X153295499Y-56770000D01*
X153295499Y-55922128D01*
X153289091Y-55862517D01*
X153238796Y-55727669D01*
X153152546Y-55612454D01*
X153037331Y-55526204D01*
X152902483Y-55475909D01*
X152842873Y-55469500D01*
X152842869Y-55469500D01*
X151147130Y-55469500D01*
X151087515Y-55475909D01*
X150952669Y-55526204D01*
X150837454Y-55612454D01*
X150751204Y-55727668D01*
X150700909Y-55862515D01*
X150700909Y-55862517D01*
X150695383Y-55913921D01*
X150694500Y-55922130D01*
X150694500Y-57617869D01*
X150700909Y-57677484D01*
X150702918Y-57682869D01*
X150751204Y-57812331D01*
X150837454Y-57927546D01*
X150952669Y-58013796D01*
X151087517Y-58064091D01*
X151122594Y-58067862D01*
X151178513Y-58088239D01*
X151218497Y-58132327D01*
X151233332Y-58189968D01*
X151219600Y-58247881D01*
X151180464Y-58292724D01*
X151155860Y-58309952D01*
X150994953Y-58470859D01*
X150864432Y-58657264D01*
X150768261Y-58863502D01*
X150709364Y-59083310D01*
X150689531Y-59310000D01*
X150709364Y-59536689D01*
X150768261Y-59756497D01*
X150864432Y-59962735D01*
X150994953Y-60149140D01*
X151155859Y-60310046D01*
X151324007Y-60427783D01*
X151342266Y-60440568D01*
X151400273Y-60467617D01*
X151452449Y-60513373D01*
X151471869Y-60579997D01*
X151452451Y-60646622D01*
X151400276Y-60692380D01*
X151342266Y-60719431D01*
X151155859Y-60849953D01*
X150994953Y-61010859D01*
X150864432Y-61197264D01*
X150768261Y-61403502D01*
X150709364Y-61623310D01*
X150689531Y-61850000D01*
X150709364Y-62076689D01*
X150768261Y-62296497D01*
X150864432Y-62502735D01*
X150994953Y-62689140D01*
X151155859Y-62850046D01*
X151271425Y-62930965D01*
X151342266Y-62980568D01*
X151400273Y-63007617D01*
X151452449Y-63053373D01*
X151471869Y-63119997D01*
X151452451Y-63186622D01*
X151400276Y-63232380D01*
X151342266Y-63259431D01*
X151155859Y-63389953D01*
X150994953Y-63550859D01*
X150864432Y-63737264D01*
X150768261Y-63943502D01*
X150709364Y-64163310D01*
X150689531Y-64390000D01*
X150709364Y-64616689D01*
X150768261Y-64836497D01*
X150864432Y-65042735D01*
X150994953Y-65229140D01*
X151155859Y-65390046D01*
X151226619Y-65439592D01*
X151342266Y-65520568D01*
X151400275Y-65547618D01*
X151452450Y-65593375D01*
X151471869Y-65660000D01*
X151452450Y-65726625D01*
X151400275Y-65772382D01*
X151342263Y-65799433D01*
X151155859Y-65929953D01*
X150994953Y-66090859D01*
X150864432Y-66277264D01*
X150768261Y-66483502D01*
X150709364Y-66703310D01*
X150689531Y-66930000D01*
X150709364Y-67156689D01*
X150768261Y-67376497D01*
X150864432Y-67582735D01*
X150994953Y-67769140D01*
X151155859Y-67930046D01*
X151226619Y-67979592D01*
X151342266Y-68060568D01*
X151400275Y-68087618D01*
X151452450Y-68133375D01*
X151471869Y-68200000D01*
X151452450Y-68266625D01*
X151400275Y-68312382D01*
X151342263Y-68339433D01*
X151155859Y-68469953D01*
X150994953Y-68630859D01*
X150864432Y-68817264D01*
X150768261Y-69023502D01*
X150709364Y-69243310D01*
X150689531Y-69470000D01*
X150709364Y-69696689D01*
X150768261Y-69916497D01*
X150864432Y-70122735D01*
X150994953Y-70309140D01*
X151155859Y-70470046D01*
X151226619Y-70519592D01*
X151342266Y-70600568D01*
X151400275Y-70627618D01*
X151452450Y-70673375D01*
X151471869Y-70740000D01*
X151452450Y-70806625D01*
X151400275Y-70852382D01*
X151342263Y-70879433D01*
X151155859Y-71009953D01*
X150994953Y-71170859D01*
X150864432Y-71357264D01*
X150768261Y-71563502D01*
X150709364Y-71783310D01*
X150689531Y-72010000D01*
X147462450Y-72010000D01*
X147557734Y-71965568D01*
X147744139Y-71835047D01*
X147905047Y-71674139D01*
X148035568Y-71487734D01*
X148131739Y-71281496D01*
X148190635Y-71061692D01*
X148210468Y-70835000D01*
X148190635Y-70608308D01*
X148131739Y-70388504D01*
X148035568Y-70182266D01*
X147993884Y-70122735D01*
X147905046Y-69995859D01*
X147744140Y-69834953D01*
X147557735Y-69704432D01*
X147351497Y-69608261D01*
X147131689Y-69549364D01*
X146904999Y-69529531D01*
X146678310Y-69549364D01*
X146458502Y-69608261D01*
X146252264Y-69704432D01*
X146065859Y-69834953D01*
X145904953Y-69995859D01*
X145774432Y-70182264D01*
X145678261Y-70388502D01*
X145619364Y-70608310D01*
X145599531Y-70835000D01*
X144135500Y-70835000D01*
X144135500Y-61784999D01*
X145599531Y-61784999D01*
X145619364Y-62011689D01*
X145678261Y-62231497D01*
X145774432Y-62437735D01*
X145904953Y-62624140D01*
X146065859Y-62785046D01*
X146252264Y-62915567D01*
X146252265Y-62915567D01*
X146252266Y-62915568D01*
X146458504Y-63011739D01*
X146678308Y-63070635D01*
X146905000Y-63090468D01*
X147131692Y-63070635D01*
X147351496Y-63011739D01*
X147557734Y-62915568D01*
X147744139Y-62785047D01*
X147905047Y-62624139D01*
X148035568Y-62437734D01*
X148131739Y-62231496D01*
X148190635Y-62011692D01*
X148210468Y-61785000D01*
X148190635Y-61558308D01*
X148131739Y-61338504D01*
X148035568Y-61132266D01*
X148013911Y-61101337D01*
X147905046Y-60945859D01*
X147744140Y-60784953D01*
X147557735Y-60654432D01*
X147351497Y-60558261D01*
X147131689Y-60499364D01*
X146905000Y-60479531D01*
X146678310Y-60499364D01*
X146458502Y-60558261D01*
X146252264Y-60654432D01*
X146065859Y-60784953D01*
X145904953Y-60945859D01*
X145774432Y-61132264D01*
X145678261Y-61338502D01*
X145619364Y-61558310D01*
X145599531Y-61784999D01*
X144135500Y-61784999D01*
X144135500Y-60388687D01*
X144143736Y-60344249D01*
X144167347Y-60305717D01*
X144242533Y-60222216D01*
X144262201Y-60188151D01*
X144337179Y-60058284D01*
X144368225Y-59962734D01*
X144395674Y-59878256D01*
X144415460Y-59690000D01*
X144395674Y-59501744D01*
X144337179Y-59321716D01*
X144337179Y-59321715D01*
X144242533Y-59157783D01*
X144115870Y-59017110D01*
X143962730Y-58905848D01*
X143789802Y-58828855D01*
X143604648Y-58789500D01*
X143604646Y-58789500D01*
X143415354Y-58789500D01*
X143415352Y-58789500D01*
X143230197Y-58828855D01*
X143057269Y-58905848D01*
X142904129Y-59017110D01*
X142777466Y-59157783D01*
X142682820Y-59321715D01*
X142624326Y-59501742D01*
X142604540Y-59690000D01*
X142624326Y-59878257D01*
X142682820Y-60058284D01*
X142777464Y-60222213D01*
X142777467Y-60222216D01*
X142852652Y-60305717D01*
X142876264Y-60344249D01*
X142884500Y-60388687D01*
X142884500Y-71691313D01*
X142876264Y-71735751D01*
X142852652Y-71774282D01*
X142819545Y-71811051D01*
X142777464Y-71857786D01*
X142682820Y-72021715D01*
X142624326Y-72201742D01*
X142604540Y-72390000D01*
X134115018Y-72390000D01*
X134208903Y-72188663D01*
X134270063Y-71960408D01*
X134290659Y-71725000D01*
X134270063Y-71489592D01*
X134208903Y-71261337D01*
X134109035Y-71047171D01*
X133973495Y-70853599D01*
X133806401Y-70686505D01*
X133620839Y-70556573D01*
X133581975Y-70512257D01*
X133567964Y-70455000D01*
X133581975Y-70397743D01*
X133620839Y-70353426D01*
X133806401Y-70223495D01*
X133973495Y-70056401D01*
X134109035Y-69862830D01*
X134208903Y-69648663D01*
X134270063Y-69420408D01*
X134290659Y-69185000D01*
X134270063Y-68949592D01*
X134208903Y-68721337D01*
X134109035Y-68507171D01*
X133973495Y-68313599D01*
X133806401Y-68146505D01*
X133620839Y-68016573D01*
X133581975Y-67972257D01*
X133567964Y-67915000D01*
X133581975Y-67857743D01*
X133620839Y-67813426D01*
X133806401Y-67683495D01*
X133973495Y-67516401D01*
X134109035Y-67322830D01*
X134208903Y-67108663D01*
X134270063Y-66880408D01*
X134290659Y-66645000D01*
X134270063Y-66409592D01*
X134208903Y-66181337D01*
X134109035Y-65967171D01*
X133973495Y-65773599D01*
X133806401Y-65606505D01*
X133620839Y-65476573D01*
X133581974Y-65432255D01*
X133567964Y-65374999D01*
X133581975Y-65317742D01*
X133620837Y-65273428D01*
X133806401Y-65143495D01*
X133973495Y-64976401D01*
X134109035Y-64782830D01*
X134133670Y-64730000D01*
X139664531Y-64730000D01*
X139684364Y-64956689D01*
X139743261Y-65176497D01*
X139839432Y-65382735D01*
X139969953Y-65569140D01*
X140130859Y-65730046D01*
X140317264Y-65860567D01*
X140317265Y-65860567D01*
X140317266Y-65860568D01*
X140523504Y-65956739D01*
X140743308Y-66015635D01*
X140970000Y-66035468D01*
X141196692Y-66015635D01*
X141416496Y-65956739D01*
X141622734Y-65860568D01*
X141809139Y-65730047D01*
X141970047Y-65569139D01*
X142100568Y-65382734D01*
X142196739Y-65176496D01*
X142255635Y-64956692D01*
X142275468Y-64730000D01*
X142255635Y-64503308D01*
X142196739Y-64283504D01*
X142100568Y-64077266D01*
X142090896Y-64063453D01*
X141970046Y-63890859D01*
X141809140Y-63729953D01*
X141622735Y-63599432D01*
X141607023Y-63592106D01*
X141554847Y-63546348D01*
X141535428Y-63479722D01*
X141554849Y-63413097D01*
X141607026Y-63367340D01*
X141622484Y-63360131D01*
X141695472Y-63309025D01*
X140970001Y-62583553D01*
X140970000Y-62583553D01*
X140244526Y-63309025D01*
X140244526Y-63309026D01*
X140317515Y-63360133D01*
X140332975Y-63367342D01*
X140385150Y-63413098D01*
X140404570Y-63479722D01*
X140385152Y-63546347D01*
X140332978Y-63592104D01*
X140317268Y-63599429D01*
X140130859Y-63729953D01*
X139969953Y-63890859D01*
X139839432Y-64077264D01*
X139743261Y-64283502D01*
X139684364Y-64503310D01*
X139664531Y-64730000D01*
X134133670Y-64730000D01*
X134208903Y-64568663D01*
X134270063Y-64340408D01*
X134290659Y-64105000D01*
X134270063Y-63869592D01*
X134208903Y-63641337D01*
X134109035Y-63427171D01*
X133973495Y-63233599D01*
X133806401Y-63066505D01*
X133620839Y-62936573D01*
X133581974Y-62892255D01*
X133567964Y-62834999D01*
X133581975Y-62777742D01*
X133620837Y-62733428D01*
X133806401Y-62603495D01*
X133973495Y-62436401D01*
X134109035Y-62242830D01*
X134115018Y-62230000D01*
X139665033Y-62230000D01*
X139684858Y-62456602D01*
X139743733Y-62676326D01*
X139839866Y-62882484D01*
X139890972Y-62955471D01*
X139890974Y-62955472D01*
X140616446Y-62230001D01*
X141323553Y-62230001D01*
X142049025Y-62955472D01*
X142100134Y-62882480D01*
X142196266Y-62676326D01*
X142255141Y-62456602D01*
X142274966Y-62230000D01*
X142255141Y-62003397D01*
X142196266Y-61783673D01*
X142100133Y-61577515D01*
X142049025Y-61504526D01*
X141323553Y-62230000D01*
X141323553Y-62230001D01*
X140616446Y-62230001D01*
X140616446Y-62229999D01*
X139890973Y-61504526D01*
X139890973Y-61504527D01*
X139839865Y-61577516D01*
X139743733Y-61783672D01*
X139684858Y-62003397D01*
X139665033Y-62230000D01*
X134115018Y-62230000D01*
X134208903Y-62028663D01*
X134270063Y-61800408D01*
X134290659Y-61565000D01*
X134270063Y-61329592D01*
X134222203Y-61150973D01*
X140244526Y-61150973D01*
X140970000Y-61876446D01*
X140970001Y-61876446D01*
X141695472Y-61150974D01*
X141695471Y-61150972D01*
X141622484Y-61099866D01*
X141416326Y-61003733D01*
X141196602Y-60944858D01*
X140970000Y-60925033D01*
X140743397Y-60944858D01*
X140523672Y-61003733D01*
X140317516Y-61099865D01*
X140244527Y-61150973D01*
X140244526Y-61150973D01*
X134222203Y-61150973D01*
X134208903Y-61101337D01*
X134109035Y-60887171D01*
X133973495Y-60693599D01*
X133851569Y-60571673D01*
X133820273Y-60518927D01*
X133818084Y-60457634D01*
X133845537Y-60402789D01*
X133895916Y-60367810D01*
X134027331Y-60318796D01*
X134142546Y-60232546D01*
X134228796Y-60117331D01*
X134279091Y-59982483D01*
X134285500Y-59922873D01*
X134285499Y-58127128D01*
X134279091Y-58067517D01*
X134228796Y-57932669D01*
X134142546Y-57817454D01*
X134027331Y-57731204D01*
X133897738Y-57682869D01*
X137934500Y-57682869D01*
X137940909Y-57742484D01*
X137966056Y-57809906D01*
X137991204Y-57877331D01*
X138077454Y-57992546D01*
X138192669Y-58078796D01*
X138327517Y-58129091D01*
X138387127Y-58135500D01*
X140182872Y-58135499D01*
X140242483Y-58129091D01*
X140377331Y-58078796D01*
X140492546Y-57992546D01*
X140578796Y-57877331D01*
X140628003Y-57745398D01*
X140662981Y-57695021D01*
X140717826Y-57667568D01*
X140779119Y-57669757D01*
X140831865Y-57701053D01*
X140953918Y-57823106D01*
X141147423Y-57958600D01*
X141361507Y-58058430D01*
X141574999Y-58115635D01*
X141575000Y-58115636D01*
X141575000Y-57035000D01*
X142075000Y-57035000D01*
X142075000Y-58115635D01*
X142288492Y-58058430D01*
X142502576Y-57958600D01*
X142637641Y-57864026D01*
X146179526Y-57864026D01*
X146252515Y-57915133D01*
X146458673Y-58011266D01*
X146678397Y-58070141D01*
X146905000Y-58089966D01*
X147131602Y-58070141D01*
X147351326Y-58011266D01*
X147557480Y-57915134D01*
X147630472Y-57864025D01*
X146905001Y-57138553D01*
X146905000Y-57138553D01*
X146179526Y-57864025D01*
X146179526Y-57864026D01*
X142637641Y-57864026D01*
X142696081Y-57823106D01*
X142863106Y-57656081D01*
X142998600Y-57462576D01*
X143098430Y-57248492D01*
X143155636Y-57035000D01*
X142075000Y-57035000D01*
X141575000Y-57035000D01*
X141575000Y-56784999D01*
X145600033Y-56784999D01*
X145619858Y-57011602D01*
X145678733Y-57231326D01*
X145774866Y-57437484D01*
X145825972Y-57510471D01*
X145825973Y-57510472D01*
X146551446Y-56785000D01*
X146551446Y-56784999D01*
X147258553Y-56784999D01*
X147984025Y-57510472D01*
X148035134Y-57437480D01*
X148131266Y-57231326D01*
X148190141Y-57011602D01*
X148209966Y-56784999D01*
X148190141Y-56558397D01*
X148131266Y-56338673D01*
X148035133Y-56132515D01*
X147984025Y-56059526D01*
X147258553Y-56784998D01*
X147258553Y-56784999D01*
X146551446Y-56784999D01*
X146551446Y-56784998D01*
X145825973Y-56059527D01*
X145774865Y-56132516D01*
X145678733Y-56338672D01*
X145619858Y-56558397D01*
X145600033Y-56784999D01*
X141575000Y-56784999D01*
X141575000Y-55454364D01*
X142075000Y-55454364D01*
X142075000Y-56535000D01*
X143155636Y-56535000D01*
X143155635Y-56534999D01*
X143098430Y-56321507D01*
X142998599Y-56107421D01*
X142863109Y-55913921D01*
X142696081Y-55746893D01*
X142637641Y-55705973D01*
X146179526Y-55705973D01*
X146905000Y-56431446D01*
X146905001Y-56431446D01*
X147630472Y-55705974D01*
X147630471Y-55705972D01*
X147557484Y-55654866D01*
X147351326Y-55558733D01*
X147131602Y-55499858D01*
X146905000Y-55480033D01*
X146678397Y-55499858D01*
X146458672Y-55558733D01*
X146252516Y-55654865D01*
X146179527Y-55705973D01*
X146179526Y-55705973D01*
X142637641Y-55705973D01*
X142502576Y-55611399D01*
X142288492Y-55511569D01*
X142075000Y-55454364D01*
X141575000Y-55454364D01*
X141574999Y-55454364D01*
X141361507Y-55511569D01*
X141147421Y-55611400D01*
X140953924Y-55746888D01*
X140831865Y-55868947D01*
X140779118Y-55900242D01*
X140717825Y-55902431D01*
X140662981Y-55874978D01*
X140628002Y-55824598D01*
X140578796Y-55692669D01*
X140492546Y-55577454D01*
X140377331Y-55491204D01*
X140242483Y-55440909D01*
X140182873Y-55434500D01*
X140182869Y-55434500D01*
X138387130Y-55434500D01*
X138327515Y-55440909D01*
X138192669Y-55491204D01*
X138077454Y-55577454D01*
X137991204Y-55692668D01*
X137941997Y-55824598D01*
X137940909Y-55827517D01*
X137935267Y-55880000D01*
X137934500Y-55887130D01*
X137934500Y-57682869D01*
X133897738Y-57682869D01*
X133892483Y-57680909D01*
X133832873Y-57674500D01*
X133832869Y-57674500D01*
X132037130Y-57674500D01*
X131977515Y-57680909D01*
X131842669Y-57731204D01*
X131727454Y-57817454D01*
X131641204Y-57932668D01*
X131590909Y-58067515D01*
X131590909Y-58067517D01*
X131585736Y-58115636D01*
X131584500Y-58127130D01*
X131584500Y-59922869D01*
X131588786Y-59962734D01*
X131590909Y-59982483D01*
X131641204Y-60117331D01*
X131727454Y-60232546D01*
X131842669Y-60318796D01*
X131925908Y-60349842D01*
X131974082Y-60367810D01*
X132024462Y-60402789D01*
X132051915Y-60457634D01*
X132049726Y-60518926D01*
X132018431Y-60571673D01*
X131896503Y-60693601D01*
X131760965Y-60887170D01*
X131661097Y-61101336D01*
X131599936Y-61329592D01*
X131579340Y-61565000D01*
X131599936Y-61800407D01*
X131620311Y-61876446D01*
X131661097Y-62028663D01*
X131760965Y-62242830D01*
X131896505Y-62436401D01*
X132063599Y-62603495D01*
X132249160Y-62733426D01*
X132288024Y-62777743D01*
X132302035Y-62835000D01*
X132288024Y-62892257D01*
X132249159Y-62936575D01*
X132063595Y-63066508D01*
X131896505Y-63233598D01*
X131760965Y-63427170D01*
X131661097Y-63641336D01*
X131599936Y-63869592D01*
X131579340Y-64104999D01*
X131599936Y-64340407D01*
X131617244Y-64405000D01*
X131661097Y-64568663D01*
X131760965Y-64782830D01*
X131896505Y-64976401D01*
X132063599Y-65143495D01*
X132249160Y-65273426D01*
X132288024Y-65317743D01*
X132302035Y-65375000D01*
X132288024Y-65432257D01*
X132249160Y-65476574D01*
X132116964Y-65569139D01*
X132063595Y-65606508D01*
X131896505Y-65773598D01*
X131760965Y-65967170D01*
X131661097Y-66181336D01*
X131599936Y-66409592D01*
X131579340Y-66644999D01*
X131599936Y-66880407D01*
X131632586Y-67002257D01*
X131661097Y-67108663D01*
X131760965Y-67322830D01*
X131896505Y-67516401D01*
X132063599Y-67683495D01*
X132249160Y-67813426D01*
X132288024Y-67857743D01*
X132302035Y-67915000D01*
X132288024Y-67972257D01*
X132249159Y-68016575D01*
X132063595Y-68146508D01*
X131896505Y-68313598D01*
X131760965Y-68507170D01*
X131661097Y-68721336D01*
X131599936Y-68949592D01*
X131579340Y-69185000D01*
X131599936Y-69420407D01*
X131642958Y-69580965D01*
X131661097Y-69648663D01*
X131760965Y-69862830D01*
X131896505Y-70056401D01*
X132063599Y-70223495D01*
X132249160Y-70353426D01*
X132288024Y-70397743D01*
X132302035Y-70455000D01*
X132288024Y-70512257D01*
X132249159Y-70556575D01*
X132063595Y-70686508D01*
X131896505Y-70853598D01*
X131760965Y-71047170D01*
X131661097Y-71261336D01*
X131599936Y-71489592D01*
X131579340Y-71725000D01*
X131599936Y-71960407D01*
X131616364Y-72021716D01*
X131661097Y-72188663D01*
X131760965Y-72402830D01*
X131896505Y-72596401D01*
X132063599Y-72763495D01*
X132249160Y-72893426D01*
X132288024Y-72937743D01*
X132302035Y-72995000D01*
X132288024Y-73052257D01*
X132249158Y-73096575D01*
X132081960Y-73213649D01*
X132063595Y-73226508D01*
X131896505Y-73393598D01*
X131760965Y-73587170D01*
X131661097Y-73801336D01*
X131599936Y-74029592D01*
X131579340Y-74265000D01*
X131599936Y-74500407D01*
X131617244Y-74565000D01*
X131661097Y-74728663D01*
X131760965Y-74942830D01*
X131896505Y-75136401D01*
X132063599Y-75303495D01*
X132249160Y-75433426D01*
X132288024Y-75477743D01*
X132302035Y-75535000D01*
X132288024Y-75592257D01*
X132249160Y-75636574D01*
X132082747Y-75753098D01*
X132063595Y-75766508D01*
X131896505Y-75933598D01*
X131760965Y-76127170D01*
X131661097Y-76341336D01*
X131599936Y-76569592D01*
X131579340Y-76804999D01*
X131599936Y-77040407D01*
X131617244Y-77105000D01*
X131661097Y-77268663D01*
X131760965Y-77482830D01*
X131896505Y-77676401D01*
X132063599Y-77843495D01*
X132249160Y-77973426D01*
X132288024Y-78017743D01*
X132302035Y-78075000D01*
X132288024Y-78132257D01*
X132249158Y-78176575D01*
X132081960Y-78293649D01*
X132063595Y-78306508D01*
X131896505Y-78473598D01*
X131760965Y-78667170D01*
X131661097Y-78881336D01*
X131599936Y-79109592D01*
X131579340Y-79345000D01*
X131599936Y-79580407D01*
X131640073Y-79730198D01*
X131661097Y-79808663D01*
X131760965Y-80022830D01*
X131896505Y-80216401D01*
X132063599Y-80383495D01*
X132249160Y-80513426D01*
X132288024Y-80557743D01*
X132302035Y-80615000D01*
X132288024Y-80672257D01*
X132249158Y-80716575D01*
X132082747Y-80833098D01*
X132063595Y-80846508D01*
X131896505Y-81013598D01*
X131760965Y-81207170D01*
X131661097Y-81421336D01*
X131599936Y-81649592D01*
X131579340Y-81884999D01*
X131599936Y-82120407D01*
X131632586Y-82242257D01*
X131661097Y-82348663D01*
X131760965Y-82562830D01*
X131896505Y-82756401D01*
X132063599Y-82923495D01*
X132249160Y-83053426D01*
X132288024Y-83097743D01*
X132302035Y-83155000D01*
X132288024Y-83212257D01*
X132249159Y-83256575D01*
X132063595Y-83386508D01*
X131896505Y-83553598D01*
X131760965Y-83747170D01*
X131661097Y-83961336D01*
X131599936Y-84189592D01*
X131579340Y-84424999D01*
X131217176Y-84424999D01*
X131180856Y-53772869D01*
X168514500Y-53772869D01*
X168515469Y-53781880D01*
X168520909Y-53832483D01*
X168571204Y-53967331D01*
X168657454Y-54082546D01*
X168772669Y-54168796D01*
X168907517Y-54219091D01*
X168967127Y-54225500D01*
X170562872Y-54225499D01*
X170622483Y-54219091D01*
X170757331Y-54168796D01*
X170872546Y-54082546D01*
X170920772Y-54018124D01*
X171615426Y-54018124D01*
X171615427Y-54018125D01*
X171677610Y-54061666D01*
X171875840Y-54154102D01*
X172087113Y-54210712D01*
X172305000Y-54229775D01*
X172522886Y-54210712D01*
X172734159Y-54154102D01*
X172932385Y-54061667D01*
X172994572Y-54018124D01*
X172305001Y-53328553D01*
X172305000Y-53328553D01*
X171615426Y-54018124D01*
X170920772Y-54018124D01*
X170958796Y-53967331D01*
X171009091Y-53832483D01*
X171015500Y-53772873D01*
X171015499Y-53705988D01*
X171031046Y-53645875D01*
X171073788Y-53600833D01*
X171133009Y-53582160D01*
X171193857Y-53594539D01*
X171241074Y-53634867D01*
X171261873Y-53664571D01*
X171261875Y-53664572D01*
X171951447Y-52975001D01*
X172658553Y-52975001D01*
X173348124Y-53664572D01*
X173391668Y-53602384D01*
X173462341Y-53450825D01*
X173508097Y-53398649D01*
X173574722Y-53379229D01*
X173641348Y-53398648D01*
X173687105Y-53450824D01*
X173726723Y-53535785D01*
X173757898Y-53602639D01*
X173883402Y-53781877D01*
X174038123Y-53936598D01*
X174217361Y-54062102D01*
X174415670Y-54154575D01*
X174627023Y-54211207D01*
X174845000Y-54230277D01*
X175062977Y-54211207D01*
X175274330Y-54154575D01*
X175472639Y-54062102D01*
X175651877Y-53936598D01*
X175806598Y-53781877D01*
X175932102Y-53602639D01*
X176024575Y-53404330D01*
X176081207Y-53192977D01*
X176100277Y-52975000D01*
X176081207Y-52757023D01*
X176024575Y-52545670D01*
X175932102Y-52347362D01*
X175806598Y-52168123D01*
X175651877Y-52013402D01*
X175472639Y-51887898D01*
X175381205Y-51845261D01*
X175274331Y-51795425D01*
X175062974Y-51738792D01*
X174845000Y-51719722D01*
X174627025Y-51738792D01*
X174415668Y-51795425D01*
X174217361Y-51887898D01*
X174038122Y-52013402D01*
X173883402Y-52168122D01*
X173757899Y-52347359D01*
X173687105Y-52499176D01*
X173641347Y-52551351D01*
X173574722Y-52570770D01*
X173508098Y-52551350D01*
X173462341Y-52499175D01*
X173391667Y-52347615D01*
X173348123Y-52285428D01*
X172658553Y-52975000D01*
X172658553Y-52975001D01*
X171951447Y-52975001D01*
X171951447Y-52975000D01*
X171261875Y-52285427D01*
X171261874Y-52285428D01*
X171241074Y-52315135D01*
X171193857Y-52355462D01*
X171133010Y-52367842D01*
X171073789Y-52349170D01*
X171031046Y-52304128D01*
X171015499Y-52244012D01*
X171015499Y-52177130D01*
X171015499Y-52177127D01*
X171009091Y-52117517D01*
X170958796Y-51982669D01*
X170920772Y-51931875D01*
X171615427Y-51931875D01*
X172305000Y-52621447D01*
X172305001Y-52621447D01*
X172994572Y-51931875D01*
X172994571Y-51931873D01*
X172932386Y-51888331D01*
X172734161Y-51795898D01*
X172522886Y-51739287D01*
X172305000Y-51720224D01*
X172087113Y-51739287D01*
X171875840Y-51795897D01*
X171677611Y-51888333D01*
X171615428Y-51931874D01*
X171615427Y-51931875D01*
X170920772Y-51931875D01*
X170872546Y-51867454D01*
X170757331Y-51781204D01*
X170622483Y-51730909D01*
X170562873Y-51724500D01*
X170562869Y-51724500D01*
X168967130Y-51724500D01*
X168907515Y-51730909D01*
X168772669Y-51781204D01*
X168657454Y-51867454D01*
X168571204Y-51982668D01*
X168520909Y-52117515D01*
X168520909Y-52117517D01*
X168514511Y-52177032D01*
X168514500Y-52177130D01*
X168514500Y-53772869D01*
X131180856Y-53772869D01*
X131178732Y-51980000D01*
X134119364Y-51980000D01*
X134176569Y-52193492D01*
X134276399Y-52407576D01*
X134411893Y-52601081D01*
X134578918Y-52768106D01*
X134772423Y-52903600D01*
X134986507Y-53003430D01*
X135199999Y-53060635D01*
X135200000Y-53060636D01*
X135200000Y-53060635D01*
X135700000Y-53060635D01*
X135913492Y-53003430D01*
X136127576Y-52903600D01*
X136321081Y-52768106D01*
X136488109Y-52601078D01*
X136618119Y-52415405D01*
X136662437Y-52376539D01*
X136719694Y-52362528D01*
X136776951Y-52376539D01*
X136821267Y-52415402D01*
X136951505Y-52601401D01*
X137118599Y-52768495D01*
X137312170Y-52904035D01*
X137526337Y-53003903D01*
X137754592Y-53065063D01*
X137990000Y-53085659D01*
X138225408Y-53065063D01*
X138453663Y-53003903D01*
X138667830Y-52904035D01*
X138861401Y-52768495D01*
X139028495Y-52601401D01*
X139158426Y-52415839D01*
X139202743Y-52376975D01*
X139260000Y-52362964D01*
X139317257Y-52376975D01*
X139361573Y-52415839D01*
X139491505Y-52601401D01*
X139658599Y-52768495D01*
X139852170Y-52904035D01*
X140066337Y-53003903D01*
X140294592Y-53065063D01*
X140530000Y-53085659D01*
X140765408Y-53065063D01*
X140993663Y-53003903D01*
X141207830Y-52904035D01*
X141401401Y-52768495D01*
X141568495Y-52601401D01*
X141698426Y-52415839D01*
X141742743Y-52376975D01*
X141800000Y-52362964D01*
X141857257Y-52376975D01*
X141901573Y-52415839D01*
X142031505Y-52601401D01*
X142198599Y-52768495D01*
X142392170Y-52904035D01*
X142606337Y-53003903D01*
X142834592Y-53065063D01*
X143070000Y-53085659D01*
X143305408Y-53065063D01*
X143533663Y-53003903D01*
X143747830Y-52904035D01*
X143941401Y-52768495D01*
X144108495Y-52601401D01*
X144238426Y-52415839D01*
X144282743Y-52376975D01*
X144340000Y-52362964D01*
X144397257Y-52376975D01*
X144441573Y-52415839D01*
X144571505Y-52601401D01*
X144738599Y-52768495D01*
X144932170Y-52904035D01*
X145146337Y-53003903D01*
X145374592Y-53065063D01*
X145610000Y-53085659D01*
X145845408Y-53065063D01*
X146073663Y-53003903D01*
X146287830Y-52904035D01*
X146481401Y-52768495D01*
X146603329Y-52646566D01*
X146656072Y-52615273D01*
X146717365Y-52613084D01*
X146772209Y-52640537D01*
X146807189Y-52690916D01*
X146856204Y-52822331D01*
X146942454Y-52937546D01*
X147057669Y-53023796D01*
X147192517Y-53074091D01*
X147252127Y-53080500D01*
X149047872Y-53080499D01*
X149107483Y-53074091D01*
X149242331Y-53023796D01*
X149357546Y-52937546D01*
X149443796Y-52822331D01*
X149494091Y-52687483D01*
X149500500Y-52627873D01*
X149500499Y-51704999D01*
X155709340Y-51704999D01*
X155729936Y-51940407D01*
X155749495Y-52013402D01*
X155791097Y-52168663D01*
X155890965Y-52382830D01*
X156026505Y-52576401D01*
X156193599Y-52743495D01*
X156387170Y-52879035D01*
X156601337Y-52978903D01*
X156829592Y-53040063D01*
X157065000Y-53060659D01*
X157300408Y-53040063D01*
X157528663Y-52978903D01*
X157742830Y-52879035D01*
X157936401Y-52743495D01*
X158103495Y-52576401D01*
X158233426Y-52390839D01*
X158277743Y-52351975D01*
X158335000Y-52337964D01*
X158392257Y-52351975D01*
X158436573Y-52390839D01*
X158566505Y-52576401D01*
X158733599Y-52743495D01*
X158927170Y-52879035D01*
X159141337Y-52978903D01*
X159369592Y-53040063D01*
X159605000Y-53060659D01*
X159840408Y-53040063D01*
X160068663Y-52978903D01*
X160282830Y-52879035D01*
X160476401Y-52743495D01*
X160643495Y-52576401D01*
X160773426Y-52390839D01*
X160817743Y-52351975D01*
X160875000Y-52337964D01*
X160932257Y-52351975D01*
X160976573Y-52390839D01*
X161106505Y-52576401D01*
X161273599Y-52743495D01*
X161467170Y-52879035D01*
X161681337Y-52978903D01*
X161909592Y-53040063D01*
X162145000Y-53060659D01*
X162380408Y-53040063D01*
X162608663Y-52978903D01*
X162822830Y-52879035D01*
X163016401Y-52743495D01*
X163183495Y-52576401D01*
X163319035Y-52382830D01*
X163418903Y-52168663D01*
X163480063Y-51940408D01*
X163500659Y-51705000D01*
X163480063Y-51469592D01*
X163418903Y-51241337D01*
X163319035Y-51027171D01*
X163183495Y-50833599D01*
X163016401Y-50666505D01*
X162822830Y-50530965D01*
X162608663Y-50431097D01*
X162547501Y-50414709D01*
X162380407Y-50369936D01*
X162145000Y-50349340D01*
X161909592Y-50369936D01*
X161681336Y-50431097D01*
X161467170Y-50530965D01*
X161273598Y-50666505D01*
X161106505Y-50833598D01*
X160976575Y-51019159D01*
X160932257Y-51058025D01*
X160875000Y-51072036D01*
X160817743Y-51058025D01*
X160773425Y-51019159D01*
X160758449Y-50997771D01*
X160643495Y-50833599D01*
X160476401Y-50666505D01*
X160282830Y-50530965D01*
X160068663Y-50431097D01*
X160007501Y-50414709D01*
X159840407Y-50369936D01*
X159605000Y-50349340D01*
X159369592Y-50369936D01*
X159141336Y-50431097D01*
X158927170Y-50530965D01*
X158733598Y-50666505D01*
X158566505Y-50833598D01*
X158436575Y-51019159D01*
X158392257Y-51058025D01*
X158335000Y-51072036D01*
X158277743Y-51058025D01*
X158233425Y-51019159D01*
X158218449Y-50997771D01*
X158103495Y-50833599D01*
X157936401Y-50666505D01*
X157742830Y-50530965D01*
X157528663Y-50431097D01*
X157467501Y-50414709D01*
X157300407Y-50369936D01*
X157065000Y-50349340D01*
X156829592Y-50369936D01*
X156601336Y-50431097D01*
X156387170Y-50530965D01*
X156193598Y-50666505D01*
X156026505Y-50833598D01*
X155890965Y-51027170D01*
X155791097Y-51241336D01*
X155729936Y-51469592D01*
X155709340Y-51704999D01*
X149500499Y-51704999D01*
X149500499Y-50832128D01*
X149494091Y-50772517D01*
X149443796Y-50637669D01*
X149357546Y-50522454D01*
X149242331Y-50436204D01*
X149107483Y-50385909D01*
X149047873Y-50379500D01*
X149047869Y-50379500D01*
X147252130Y-50379500D01*
X147192515Y-50385909D01*
X147057669Y-50436204D01*
X146942454Y-50522454D01*
X146856204Y-50637669D01*
X146807189Y-50769083D01*
X146772209Y-50819462D01*
X146717365Y-50846915D01*
X146656072Y-50844726D01*
X146603326Y-50813430D01*
X146481404Y-50691508D01*
X146481404Y-50691507D01*
X146481401Y-50691505D01*
X146287830Y-50555965D01*
X146073663Y-50456097D01*
X146012502Y-50439709D01*
X145845407Y-50394936D01*
X145610000Y-50374340D01*
X145374592Y-50394936D01*
X145146336Y-50456097D01*
X144932170Y-50555965D01*
X144738598Y-50691505D01*
X144571505Y-50858598D01*
X144441575Y-51044159D01*
X144397257Y-51083025D01*
X144340000Y-51097036D01*
X144282743Y-51083025D01*
X144238425Y-51044159D01*
X144108494Y-50858598D01*
X143941404Y-50691508D01*
X143941404Y-50691507D01*
X143941401Y-50691505D01*
X143747830Y-50555965D01*
X143533663Y-50456097D01*
X143472502Y-50439709D01*
X143305407Y-50394936D01*
X143070000Y-50374340D01*
X142834592Y-50394936D01*
X142606336Y-50456097D01*
X142392170Y-50555965D01*
X142198598Y-50691505D01*
X142031505Y-50858598D01*
X141901575Y-51044159D01*
X141857257Y-51083025D01*
X141800000Y-51097036D01*
X141742743Y-51083025D01*
X141698425Y-51044159D01*
X141568494Y-50858598D01*
X141401404Y-50691508D01*
X141401404Y-50691507D01*
X141401401Y-50691505D01*
X141207830Y-50555965D01*
X140993663Y-50456097D01*
X140932502Y-50439709D01*
X140765407Y-50394936D01*
X140530000Y-50374340D01*
X140294592Y-50394936D01*
X140066336Y-50456097D01*
X139852170Y-50555965D01*
X139658598Y-50691505D01*
X139491505Y-50858598D01*
X139361575Y-51044159D01*
X139317257Y-51083025D01*
X139260000Y-51097036D01*
X139202743Y-51083025D01*
X139158425Y-51044159D01*
X139028494Y-50858598D01*
X138861404Y-50691508D01*
X138861404Y-50691507D01*
X138861401Y-50691505D01*
X138667830Y-50555965D01*
X138453663Y-50456097D01*
X138392502Y-50439709D01*
X138225407Y-50394936D01*
X137990000Y-50374340D01*
X137754592Y-50394936D01*
X137526336Y-50456097D01*
X137312170Y-50555965D01*
X137118598Y-50691505D01*
X136951508Y-50858595D01*
X136821269Y-51044596D01*
X136776951Y-51083461D01*
X136719694Y-51097472D01*
X136662437Y-51083461D01*
X136618119Y-51044595D01*
X136488109Y-50858921D01*
X136321081Y-50691893D01*
X136127576Y-50556399D01*
X135913492Y-50456569D01*
X135700000Y-50399364D01*
X135700000Y-53060635D01*
X135200000Y-53060635D01*
X135200000Y-51980000D01*
X134119364Y-51980000D01*
X131178732Y-51980000D01*
X131178140Y-51480000D01*
X134119364Y-51480000D01*
X135200000Y-51480000D01*
X135200000Y-50399364D01*
X135199999Y-50399364D01*
X134986507Y-50456569D01*
X134772421Y-50556400D01*
X134578921Y-50691890D01*
X134411890Y-50858921D01*
X134276400Y-51052421D01*
X134176569Y-51266507D01*
X134119364Y-51479999D01*
X134119364Y-51480000D01*
X131178140Y-51480000D01*
X131175042Y-48865327D01*
X131191553Y-48803360D01*
X131236815Y-48757927D01*
X131298721Y-48741183D01*
X181124940Y-48612462D01*
X181187148Y-48629012D01*
G37*
%TD.AperFunction*%
%TD*%
M02*
