%TF.GenerationSoftware,KiCad,Pcbnew,7.0.1-0*%
%TF.CreationDate,2023-06-05T16:05:10-05:00*%
%TF.ProjectId,ME433 HW4,4d453433-3320-4485-9734-2e6b69636164,rev?*%
%TF.SameCoordinates,Original*%
%TF.FileFunction,Soldermask,Top*%
%TF.FilePolarity,Negative*%
%FSLAX46Y46*%
G04 Gerber Fmt 4.6, Leading zero omitted, Abs format (unit mm)*
G04 Created by KiCad (PCBNEW 7.0.1-0) date 2023-06-05 16:05:10*
%MOMM*%
%LPD*%
G01*
G04 APERTURE LIST*
%ADD10C,1.600000*%
%ADD11O,1.600000X1.600000*%
%ADD12R,1.700000X1.700000*%
%ADD13O,1.700000X1.700000*%
%ADD14R,1.800000X1.800000*%
%ADD15C,1.800000*%
%ADD16R,1.600000X1.600000*%
%ADD17R,1.500000X1.500000*%
%ADD18C,1.500000*%
%ADD19C,1.700000*%
G04 APERTURE END LIST*
D10*
%TO.C,R1*%
X146905000Y-83455000D03*
D11*
X146905000Y-91075000D03*
%TD*%
D12*
%TO.C,SW2*%
X172305000Y-96155000D03*
D13*
X172305000Y-91075000D03*
%TD*%
D12*
%TO.C,SW1*%
X165955000Y-96155000D03*
D13*
X165955000Y-91075000D03*
%TD*%
D14*
%TO.C,D1*%
X138015000Y-87265000D03*
D15*
X140555000Y-87265000D03*
%TD*%
D10*
%TO.C,R3*%
X167225000Y-85995000D03*
D11*
X167225000Y-78375000D03*
%TD*%
D10*
%TO.C,R2*%
X151985000Y-96155000D03*
D11*
X144365000Y-96155000D03*
%TD*%
D14*
%TO.C,D3*%
X171035000Y-59325000D03*
D15*
X173575000Y-59325000D03*
%TD*%
D12*
%TO.C,J2*%
X178655000Y-58055000D03*
D13*
X178655000Y-60595000D03*
X178655000Y-63135000D03*
X178655000Y-65675000D03*
X178655000Y-68215000D03*
X178655000Y-70755000D03*
X178655000Y-73295000D03*
X178655000Y-75835000D03*
X178655000Y-78375000D03*
X178655000Y-80915000D03*
X178655000Y-83455000D03*
X178655000Y-85995000D03*
%TD*%
D10*
%TO.C,C4*%
X165955000Y-55880000D03*
X165955000Y-60880000D03*
%TD*%
%TO.C,R5*%
X163415000Y-65675000D03*
D11*
X171035000Y-65675000D03*
%TD*%
D12*
%TO.C,J3*%
X139285000Y-56785000D03*
D13*
X141825000Y-56785000D03*
%TD*%
D10*
%TO.C,C1*%
X132935000Y-94885000D03*
X132935000Y-92385000D03*
%TD*%
D12*
%TO.C,J1*%
X132935000Y-59025000D03*
D13*
X132935000Y-61565000D03*
X132935000Y-64105000D03*
X132935000Y-66645000D03*
X132935000Y-69185000D03*
X132935000Y-71725000D03*
X132935000Y-74265000D03*
X132935000Y-76805000D03*
X132935000Y-79345000D03*
X132935000Y-81885000D03*
X132935000Y-84425000D03*
X132935000Y-86965000D03*
%TD*%
D14*
%TO.C,D2*%
X140970000Y-95250000D03*
D15*
X138430000Y-95250000D03*
%TD*%
D16*
%TO.C,U1*%
X151995000Y-56770000D03*
D11*
X151995000Y-59310000D03*
X151995000Y-61850000D03*
X151995000Y-64390000D03*
X151995000Y-66930000D03*
X151995000Y-69470000D03*
X151995000Y-72010000D03*
X151995000Y-74550000D03*
X151995000Y-77090000D03*
X151995000Y-79630000D03*
X151995000Y-82170000D03*
X151995000Y-84710000D03*
X151995000Y-87250000D03*
X151995000Y-89790000D03*
X159615000Y-89790000D03*
X159615000Y-87250000D03*
X159615000Y-84710000D03*
X159615000Y-82170000D03*
X159615000Y-79630000D03*
X159615000Y-77090000D03*
X159615000Y-74550000D03*
X159615000Y-72010000D03*
X159615000Y-69470000D03*
X159615000Y-66930000D03*
X159615000Y-64390000D03*
X159615000Y-61850000D03*
X159615000Y-59310000D03*
X159615000Y-56770000D03*
%TD*%
D10*
%TO.C,C6*%
X146905000Y-61785000D03*
X146905000Y-56785000D03*
%TD*%
D17*
%TO.C,U3*%
X169765000Y-52975000D03*
D18*
X172305000Y-52975000D03*
X174845000Y-52975000D03*
%TD*%
D10*
%TO.C,C2*%
X163339957Y-76015340D03*
X163339957Y-81015340D03*
%TD*%
D12*
%TO.C,U2*%
X148150000Y-51730000D03*
D13*
X145610000Y-51730000D03*
X143070000Y-51730000D03*
X140530000Y-51730000D03*
X137990000Y-51730000D03*
X135450000Y-51730000D03*
%TD*%
D19*
%TO.C,SW3*%
X157065000Y-51705000D03*
X159605000Y-51705000D03*
X162145000Y-51705000D03*
%TD*%
D10*
%TO.C,R4*%
X172720000Y-86360000D03*
D11*
X172720000Y-78740000D03*
%TD*%
D10*
%TO.C,C3*%
X140970000Y-64730000D03*
X140970000Y-62230000D03*
%TD*%
%TO.C,C5*%
X146905000Y-70835000D03*
X146905000Y-75835000D03*
%TD*%
M02*
